<svg width="3141" height="3141" viewBox="0 0 3141 3141" fill="none" xmlns="http://www.w3.org/2000/svg">
<path d="M1053.31 2797.85V2874.06L1275.56 3058.36L2002.01 3123.49L2281.13 2976L2380.72 2816.13V2745.1L1053.31 2797.85Z" fill="url(#paint0_linear_1833_615)"/>
<path d="M1285.11 2979.8L1275.56 3058.36L2002.01 3123.49V3050.68L1285.11 2979.8Z" fill="url(#paint1_linear_1833_615)"/>
<path d="M2265.76 2910.87L2281.13 2976L2380.72 2816.13V2745.1L2265.76 2910.87Z" fill="url(#paint2_linear_1833_615)"/>
<path d="M2380.72 2745.1L2269.48 2905.53L2265.76 2910.87L2260.82 2913.54L2002.01 3050.68L1796.18 3030.37L1784.21 3029.16L1285.11 2979.8L1193.77 2908.04L1184.3 2900.68L1053.31 2797.85L1158.73 2646.15L1137.62 2628.03L1254.44 2516.22H1982.35L2095.37 2554.57L2089.55 2588.87L2380.72 2745.1Z" fill="url(#paint3_linear_1833_615)"/>
<path d="M1248.78 2667.43H1310.43L1193.77 2908.04L1184.3 2900.68L1291.66 2679.24H1228.23L1323.86 2516.22H1337.53L1248.78 2667.43Z" fill="url(#paint4_linear_1833_615)"/>
<path d="M1796.19 3030.37L1784.21 3029.16L1755.57 2803.11H1687.29L1656.38 2516.22H1668.2L1697.81 2791.38H1765.93L1796.19 3030.37Z" fill="url(#paint5_linear_1833_615)"/>
<path d="M2269.48 2905.53L2265.76 2910.87L2260.82 2913.54L2079.92 2687.98L2019.16 2692.99L1927.66 2516.22H1940.92L2025.96 2680.62L2085.18 2675.76L2087.2 2678.19L2269.48 2905.53Z" fill="url(#paint6_linear_1833_615)"/>
<path d="M1290.85 2877.62C1290.85 2877.62 1255.74 2826.57 1287.7 2786.93C1319.65 2747.36 1354.12 2780.45 1370.71 2745.02C1387.29 2709.66 1331.79 2664.27 1421.11 2641.3C1510.51 2618.32 1684.21 2586.93 1808.97 2605.37C1931.86 2623.58 2028.79 2625.84 2048.85 2667.91C2048.85 2667.91 2054.35 2675.92 2054.6 2689.84C2054.84 2704.89 2065.19 2717.75 2080 2720.26C2109.69 2725.28 2162.28 2733.69 2168.51 2766.13C2217.94 3021.95 1421.11 3036.03 1290.85 2877.62Z" fill="url(#paint7_linear_1833_615)"/>
<path d="M1423.13 2713.54C1423.13 2713.54 1401.29 2781.83 1408.57 2838.71C1414.07 2882.07 1471.51 2930.61 1532.19 2915.97C1592.87 2901.24 1612.94 2845.99 1599.75 2788.3C1586.56 2730.53 1423.13 2713.54 1423.13 2713.54Z" fill="url(#paint8_linear_1833_615)"/>
<path d="M1523.29 2879.56C1479.2 2890.4 1436.48 2854.08 1423.62 2810.63C1410.84 2767.18 1431.31 2720.58 1419.17 2692.51C1407.03 2664.44 1408.65 2597.04 1408.65 2597.04C1408.65 2597.04 1566.26 2560.47 1563.83 2605.54C1563.83 2606.43 1563.75 2607.32 1563.5 2608.21C1558.89 2633.37 1563.75 2657.56 1571.59 2683.61C1579.04 2708.53 1589.23 2735.31 1596.68 2766.54C1611.97 2830.37 1567.31 2868.72 1523.29 2879.56Z" fill="url(#paint9_linear_1833_615)"/>
<path d="M1571.59 2683.61C1445.22 2704.89 1421.11 2612.01 1421.11 2612.01L1563.83 2605.46C1563.83 2606.35 1563.75 2607.24 1563.5 2608.13C1558.89 2633.37 1563.75 2657.56 1571.59 2683.61Z" fill="url(#paint10_linear_1833_615)"/>
<path d="M1462.29 2771.63C1462.29 2771.63 1525.24 2751.65 1562.21 2766.54L1553.88 2720.58C1553.88 2720.58 1495.14 2711.36 1462.29 2732.23V2771.63Z" fill="url(#paint11_linear_1833_615)"/>
<path d="M1960.02 2597.04C1960.02 2597.04 1921.67 2650.44 1850.23 2649.95C1783.4 2649.55 1749.34 2576.25 1749.34 2576.25L1747.16 2527.71L1733.73 2224.39L1731.46 2173.99L1722.48 2126.74L1665.85 1829.58L1624.18 1610.81L1729.92 1588.07L1921.75 1546.73L1942.95 2127.95L1945.94 2210.56L1957.67 2532.48L1960.02 2597.04Z" fill="url(#paint12_linear_1833_615)"/>
<path d="M1864.23 1599.4C1735.75 1660.32 1683.89 1775.05 1665.77 1829.66L1624.1 1610.89L1729.85 1588.16L1864.23 1599.4Z" fill="url(#paint13_linear_1833_615)"/>
<path d="M1790.77 2126.82V2224.47H1733.65L1731.38 2174.07L1722.4 2126.82H1790.77Z" fill="url(#paint14_linear_1833_615)"/>
<path d="M1610.75 1624.72L1604.2 1835.64L1597.24 2062.74L1590.53 2280.86L1581.79 2564.6L1580.17 2617.83C1457.6 2698.25 1392.47 2602.46 1392.47 2602.46C1388.91 2586.69 1385.75 2566.78 1382.92 2544.21C1370.3 2442.59 1365.04 2286.29 1363.02 2199.23C1362.13 2160.15 1361.81 2135.07 1361.81 2135.07L1359.22 2104.41L1330.17 1760L1313.91 1567.61L1461.4 1595.92L1517.31 1606.68L1610.75 1624.72Z" fill="url(#paint15_linear_1833_615)"/>
<path d="M1610.75 1624.72L1604.2 1835.64C1589.39 1678.61 1442.47 1624.72 1442.47 1624.72L1517.22 1606.76L1610.75 1624.72Z" fill="url(#paint16_linear_1833_615)"/>
<path d="M1468.93 2104.49V2199.23H1362.86C1361.97 2160.15 1361.65 2135.07 1361.65 2135.07L1359.06 2104.41H1468.93V2104.49Z" fill="url(#paint17_linear_1833_615)"/>
<path d="M1303.64 1501.1C1303.64 1501.1 1269.82 1516.39 1276.86 1558.54C1283.9 1600.7 1359.62 1650.86 1629.28 1644.06C1887.53 1637.59 1927.74 1587.75 1942.14 1546.73C1956.54 1505.71 1921.67 1484.76 1921.67 1484.76L1749.59 1412.91L1303.64 1501.1Z" fill="url(#paint18_linear_1833_615)"/>
<path d="M1337.7 693.83C1337.7 693.83 1357.03 659.284 1394.33 651.274C1431.63 643.264 1440.28 660.821 1440.28 660.821L1412.53 964.134L1284.46 971.82C1284.46 971.82 1319.49 728.053 1337.7 693.83Z" fill="url(#paint19_linear_1833_615)"/>
<path d="M1412.54 1130.8L1303.64 1501.1C1303.64 1501.1 1654.76 1614.13 1921.67 1484.84C1921.67 1484.84 1875.23 1173.6 1821.83 1117.04C1768.44 1060.49 1412.54 1130.8 1412.54 1130.8Z" fill="url(#paint20_linear_1833_615)"/>
<path d="M1877.01 814.621C1877.01 814.621 1876.69 936.545 1849.34 1040.99C1842.22 1068.42 1833.16 1094.63 1821.83 1117.04C1821.83 1117.04 1696.27 1156.69 1549.43 1150.94L1548.29 1150.86L1522.32 1149.33C1486.08 1146.49 1449.02 1140.75 1412.54 1130.72C1412.54 1130.72 1410.84 1123.6 1408.09 1111.3C1394.01 1049.25 1353.56 854.265 1376.13 768.506C1403.23 665.837 1440.29 660.659 1440.29 660.659L1716.17 662.034C1716.17 662.034 1812.04 632.423 1856.54 640.271L1877.01 814.621Z" fill="url(#paint21_linear_1833_615)"/>
<path d="M1849.34 1040.91C1842.22 1068.34 1833.16 1094.55 1821.83 1116.96C1821.83 1116.96 1696.27 1156.61 1549.43 1150.86L1548.29 1150.78L1522.32 1149.24C1486.08 1146.41 1449.02 1140.67 1412.54 1130.64C1412.54 1130.64 1410.84 1123.52 1408.09 1111.22C1466.82 1120.36 1701.45 1147.87 1849.34 1040.91Z" fill="url(#paint22_linear_1833_615)"/>
<path d="M874.597 1253.13C874.597 1253.13 848.384 1229.75 850.973 1186.95C853.562 1144.15 879.047 1068.83 965.858 1060.49C1052.67 1052.16 1094.25 1130.15 1091.02 1164.94C1087.78 1199.73 1082.68 1234.84 1042.15 1255.88C1001.62 1276.91 1014.97 1225.86 1022.01 1213.73C1029.04 1201.59 1040.53 1183.06 1029.69 1172.87C1018.85 1162.68 1002.91 1260.89 1002.91 1260.89L874.597 1253.13Z" fill="url(#paint23_linear_1833_615)"/>
<path d="M908.174 1252.16C906.96 1252.16 905.828 1251.35 905.423 1250.13C904.614 1247.79 886.087 1191.56 905.423 1139.46C905.989 1137.92 907.689 1137.19 909.226 1137.76C910.763 1138.32 911.491 1140.02 910.925 1141.56C892.317 1191.64 910.763 1247.71 910.925 1248.27C911.41 1249.81 910.601 1251.51 909.064 1251.99C908.821 1252.08 908.497 1252.16 908.174 1252.16Z" fill="url(#paint24_linear_1833_615)"/>
<path d="M950.891 1252.16C949.435 1252.16 948.221 1251.1 947.979 1249.65C947.574 1246.82 938.513 1179.67 960.034 1150.3C961.004 1149 962.865 1148.68 964.16 1149.65C965.454 1150.62 965.778 1152.48 964.807 1153.78C944.661 1181.2 953.723 1248.19 953.885 1248.84C954.127 1250.46 952.995 1251.91 951.377 1252.16C951.134 1252.16 950.972 1252.16 950.891 1252.16Z" fill="url(#paint25_linear_1833_615)"/>
<path d="M2235.1 1014.46C2235.1 1014.46 2215.03 1032.42 2182.75 1048.11C2179.6 1049.73 2176.2 1051.27 2172.8 1052.73C2158.56 1058.95 2142.38 1064.46 2124.74 1067.85C2121.1 1068.58 2117.38 1069.23 2113.66 1069.72C2112.93 1069.8 2112.12 1069.88 2111.4 1070.04C2098.37 1071.66 2086.48 1071.5 2075.8 1070.12C2069.89 1069.39 2064.31 1068.26 2059.05 1066.8C2021.75 1056.85 2002.42 1033.39 2002.42 1033.39L1955.01 957.823L1956.95 913.892L1957.51 900.138L1968.36 894.556L2028.47 863.65L2061.07 873.035L2068.68 875.219L2090.28 881.368L2092.79 882.096C2094.16 882.42 2094.89 882.663 2094.89 882.663L2100.55 882.582H2100.64L2116.01 882.177L2126.44 881.934L2173.45 880.802L2235.1 1014.46Z" fill="url(#paint26_linear_1833_615)"/>
<path d="M2124.66 1067.94C2121.02 1068.66 2117.3 1069.31 2113.58 1069.8C2098.45 1054.83 2077.58 1026.27 2068.92 977.969C2060.42 929.911 2079.6 895.931 2089.95 881.692C2090.03 881.611 2090.03 881.611 2090.03 881.53C2090.6 880.802 2091.17 880.074 2091.65 879.426L2094.57 882.905L2100.23 882.824C2093.03 891.724 2068.51 926.19 2077.49 976.513C2086.8 1027.73 2110.83 1055.64 2124.66 1067.94Z" fill="url(#paint27_linear_1833_615)"/>
<path d="M2182.75 1048.11C2179.6 1049.73 2176.2 1051.27 2172.8 1052.73C2149.5 1039.13 2115.28 1013.08 2105.81 973.762C2094.97 928.778 2108.16 896.255 2115.84 882.258L2126.28 882.015C2121.1 890.268 2102.82 923.601 2114.39 971.658C2123.69 1010.65 2160.99 1036.14 2182.75 1048.11Z" fill="url(#paint28_linear_1833_615)"/>
<path d="M2075.63 1070.2C2069.73 1069.47 2064.15 1068.34 2058.89 1066.88C2046.1 1053.05 2026.85 1025.06 2021.02 977.241C2016.41 939.134 2028.63 912.112 2039.63 896.093C2044.24 889.459 2048.94 884.119 2053.06 880.155C2056.14 877.08 2058.89 874.815 2060.99 873.197C2063.5 871.174 2065.12 870.203 2065.28 870.041L2068.6 875.3L2069.97 877.485C2069.73 877.566 2068.84 878.213 2067.46 879.184C2057.59 886.546 2022.64 916.966 2029.84 976.108C2037.77 1041.96 2073.13 1068.42 2075.63 1070.2Z" fill="url(#paint29_linear_1833_615)"/>
<path d="M2094.73 882.824C2094.73 882.824 2094 882.582 2092.63 882.258C2091.9 882.096 2091.01 881.934 2090.04 881.692C2085.18 880.721 2077.09 879.264 2067.46 879.184C2062.93 879.184 2058.08 879.426 2053.06 880.154C2042.22 881.611 2030.57 885.171 2020.05 892.533C1987.45 915.025 1966.9 976.108 2002.34 1033.55L1941.01 980.072L1932.51 972.629L1897.89 942.451L1890.85 936.222L1841.66 893.342L1834.78 887.436L1807.76 863.892C1807.76 863.892 1806.06 850.462 1805.09 830.964C1805.09 830.883 1805.09 830.883 1805.09 830.883C1804.85 826.272 1804.76 821.336 1804.6 816.078C1804.6 815.997 1804.6 815.997 1804.6 815.997C1803.96 777.081 1807.76 724.574 1830.33 698.684C1868.6 654.591 1912.69 667.617 1912.69 667.617L1943.11 703.62L1949.34 711.063L1981.7 749.412L1987.85 756.693L2020.54 795.366L2026.69 802.728L2054.44 835.495L2061.15 843.504L2091.57 879.507L2094.73 882.824Z" fill="url(#paint30_linear_1833_615)"/>
<path d="M2061.32 843.343C2021.43 848.844 1990.85 865.106 1970.46 891.805C1969.73 892.776 1969 893.747 1968.28 894.717C1963.83 900.947 1960.02 907.419 1956.87 914.054C1946.19 936.303 1942.14 960.17 1941.01 979.991L1932.52 972.548C1934.86 945.93 1942.55 913.568 1963.42 886.465C1984.38 859.119 2015.04 841.967 2054.68 835.333L2061.32 843.343Z" fill="url(#paint31_linear_1833_615)"/>
<path d="M2026.85 802.566C1951.04 823.764 1914.63 892.614 1897.88 942.37L1890.85 936.141C1908.56 885.575 1945.62 818.1 2020.7 795.204L2026.85 802.566Z" fill="url(#paint32_linear_1833_615)"/>
<path d="M1988.02 756.531C1913.58 779.509 1868.28 839.54 1841.66 893.261L1834.78 887.355C1861.97 833.472 1907.6 773.683 1981.87 749.331L1988.02 756.531Z" fill="url(#paint33_linear_1833_615)"/>
<path d="M1949.42 710.901C1890.44 726.03 1840.61 779.832 1805.09 830.721C1804.85 826.11 1804.77 821.175 1804.6 815.916C1804.6 815.835 1804.6 815.835 1804.6 815.835C1848.78 755.399 1896.11 717.131 1943.19 703.458L1949.42 710.901Z" fill="url(#paint34_linear_1833_615)"/>
<path d="M2139.38 960.898C2139.38 960.898 2147.48 1013.24 2209.93 1017.05C2209.93 1017.05 2228.54 1044.47 2270.45 1036.22L2277.41 967.289L2173.12 923.196L2139.38 960.898Z" fill="url(#paint35_linear_1833_615)"/>
<path d="M2348.36 1005.48C2346.75 1010.09 2344.64 1014.38 2341.89 1018.34C2323.28 1045.2 2281.13 1053.29 2265.76 1041.88C2250.39 1030.4 2260.5 1009.76 2260.5 1009.76C2260.5 1009.76 2281.54 974.813 2302.25 954.344C2311.8 944.959 2321.26 938.649 2328.46 940.267C2348.12 944.798 2357.59 978.94 2348.36 1005.48Z" fill="url(#paint36_linear_1833_615)"/>
<path d="M2348.37 1005.48C2335.58 982.095 2304.6 987.758 2304.6 987.758L2302.33 954.425C2311.88 945.04 2321.34 938.73 2328.54 940.348C2348.12 944.798 2357.59 978.94 2348.37 1005.48Z" fill="url(#paint37_linear_1833_615)"/>
<path d="M2273.04 1014.05C2216.97 1018.34 2223.2 979.101 2223.2 979.101C2223.2 979.101 2206.37 901.999 2252.33 885.575C2252.9 885.332 2253.54 885.171 2254.19 885.009C2299.01 869.96 2324.82 899.976 2332.42 923.601C2333.15 926.028 2333.8 928.859 2334.12 931.853C2337.36 959.441 2323.36 1010.17 2273.04 1014.05Z" fill="url(#paint38_linear_1833_615)"/>
<path d="M2334.12 931.853C2308.56 915.591 2274.01 935.655 2274.01 935.655L2254.27 885.009C2299.09 869.96 2324.9 899.976 2332.5 923.601C2333.15 926.028 2333.72 928.859 2334.12 931.853Z" fill="url(#paint39_linear_1833_615)"/>
<path d="M2196.91 942.37C2196.91 942.37 2185.42 969.959 2202.17 985.817C2218.92 1001.59 2279.76 976.755 2283.56 921.173C2287.36 865.592 2236.63 868.504 2224.66 871.336C2212.69 874.248 2187.77 892.452 2187.77 892.452L2196.91 942.37Z" fill="url(#paint40_linear_1833_615)"/>
<path d="M2260.42 969.474C2214.3 976.432 2196.83 942.451 2196.83 942.451C2193.59 948.6 2190.28 953.697 2186.8 957.985C2182.19 963.891 2177.49 968.179 2173.04 971.254C2157.43 982.095 2136.07 976.108 2126.77 959.522C2107.11 924.329 2118.51 884.523 2142.46 878.536C2163.33 873.278 2203.06 887.112 2222.15 894.556C2229.03 897.225 2234.85 901.918 2238.98 907.986L2268.27 951.836C2272.96 958.875 2268.67 968.179 2260.42 969.474Z" fill="url(#paint41_linear_1833_615)"/>
<path d="M2196.91 942.37C2193.67 948.519 2190.36 953.616 2186.88 957.904C2179.51 934.765 2188.74 913.487 2188.74 913.487C2188.74 926.918 2196.91 942.37 2196.91 942.37Z" fill="url(#paint42_linear_1833_615)"/>
<path d="M1804.52 863.731C1804.52 863.731 1751.93 696.014 1831.38 643.103C1847 632.747 1866.82 629.834 1883.97 637.358C1894.65 642.051 1908.32 650.869 1912.69 667.455C1912.69 667.455 1813.42 677.406 1804.52 863.731Z" fill="url(#paint43_linear_1833_615)"/>
<path d="M1394.33 892.452C1394.33 892.452 1348.62 987.03 1300.89 1055.8C1298.62 1059.12 1296.36 1062.35 1294.09 1065.51C1278.48 1087.11 1262.86 1105.31 1248.78 1115.99C1246.27 1117.93 1243.61 1119.8 1240.94 1121.49C1238.18 1123.44 1235.27 1125.22 1232.44 1126.83C1218.61 1134.92 1203.48 1141.32 1188.51 1146.33C1185.6 1147.3 1182.68 1148.27 1179.77 1149.16C1166.1 1153.37 1152.67 1156.36 1140.53 1158.71C1137.54 1159.28 1134.63 1159.76 1131.79 1160.25C1107.93 1164.21 1091.18 1164.86 1091.18 1164.86C1043.53 1046.09 966.02 1060.41 966.02 1060.41C995.307 1052.4 1020.55 1043.99 1042.31 1035.57C1045.63 1034.28 1048.87 1032.98 1052.1 1031.61C1081.23 1019.72 1103.64 1007.9 1120.71 997.062C1123.3 995.444 1125.73 993.826 1128.15 992.289C1142.47 982.661 1152.51 974.085 1159.3 967.289C1161.73 964.943 1163.75 962.759 1165.37 960.898C1170.39 955.234 1172.33 951.836 1172.33 951.836C1177.99 938.164 1184.95 923.762 1192.63 909.119C1194.01 906.53 1195.39 903.86 1196.84 901.271C1249.59 803.861 1334.87 697.633 1338.02 693.749C1319.66 750.383 1394.33 892.452 1394.33 892.452Z" fill="url(#paint44_linear_1833_615)"/>
<path d="M1140.45 1158.79C1137.46 1159.36 1134.55 1159.84 1131.72 1160.33C1118.29 1093.1 1065.7 1051.27 1042.23 1035.65C1045.55 1034.36 1048.79 1033.07 1052.02 1031.69C1078.32 1050.22 1127.35 1092.77 1140.45 1158.79Z" fill="url(#paint45_linear_1833_615)"/>
<path d="M1188.43 1146.49C1185.52 1147.46 1182.6 1148.44 1179.69 1149.33C1179.04 1082.09 1144.98 1027.56 1120.63 997.143C1123.22 995.525 1125.65 993.907 1128.07 992.37C1152.75 1023.6 1186.81 1078.61 1188.43 1146.49Z" fill="url(#paint46_linear_1833_615)"/>
<path d="M1240.85 1121.58C1238.1 1123.52 1235.19 1125.3 1232.36 1126.92C1229.45 1044.23 1183.01 989.862 1159.14 967.37C1161.57 965.024 1163.59 962.839 1165.21 960.979C1189.56 984.198 1236.16 1038.89 1240.85 1121.58Z" fill="url(#paint47_linear_1833_615)"/>
<path d="M1300.89 1055.88C1298.62 1059.2 1296.36 1062.43 1294.09 1065.59C1276.37 981.771 1219.5 929.749 1192.47 909.199C1193.85 906.61 1195.23 903.941 1196.68 901.352C1223.38 921.497 1280.58 972.872 1300.89 1055.88Z" fill="url(#paint48_linear_1833_615)"/>
<path d="M1556.14 642.455C1556.14 642.455 1522.16 624.737 1504.93 652.973C1487.69 681.209 1526.85 737.357 1610.27 745.852C1693.92 754.428 1753.63 692.536 1756.79 653.458C1757.43 644.963 1741.49 624.252 1711.32 628.54C1681.14 632.909 1556.14 642.455 1556.14 642.455Z" fill="url(#paint49_linear_1833_615)"/>
<path d="M1725.15 625.708C1719.08 638.653 1698.61 659.445 1671.84 673.442C1654.12 682.827 1633.65 689.219 1612.61 688.409C1576.77 687.115 1560.43 667.617 1553.63 655.319C1550.96 650.384 1549.35 644.883 1548.86 639.3L1545.06 597.634L1543.12 576.356L1725.15 625.708Z" fill="url(#paint50_linear_1833_615)"/>
<path d="M1725.15 625.708C1719.08 638.653 1698.61 659.445 1671.83 673.442C1598.05 660.659 1561.72 623.038 1545.14 597.634L1543.2 576.356L1725.15 625.708Z" fill="url(#paint51_linear_1833_615)"/>
<path d="M1763.9 256.214L1602.98 243.674L1562.61 240.519C1562.61 240.519 1442.47 328.22 1276.61 324.336C1268.12 324.256 1259.38 323.77 1250.64 323.042C1144.9 314.547 1083.9 239.386 1051.78 179.112C1043.93 164.549 1037.78 150.795 1033.17 139.145C1024.43 117.462 1020.87 102.818 1020.87 102.818C1042.88 124.501 1088.99 137.527 1146.76 145.294C1257.44 160.342 1411.08 156.378 1521.75 158.319C1621.19 160.018 1687.53 193.756 1725.31 221.182C1725.88 221.506 1726.36 221.911 1726.85 222.315C1728.55 223.529 1730.17 224.823 1731.78 226.037C1732.43 226.522 1733.08 227.008 1733.73 227.574C1754.11 243.674 1763.9 256.214 1763.9 256.214Z" fill="url(#paint52_linear_1833_615)"/>
<path d="M1607.52 236.555L1602.9 243.755L1562.53 240.6C1562.53 240.6 1442.39 328.301 1276.53 324.417C1268.04 324.337 1259.3 323.851 1250.56 323.123C1144.82 314.628 1083.82 239.467 1051.7 179.193C1105.34 205.325 1220.71 251.441 1333 231.781C1486.24 204.921 1607.52 236.555 1607.52 236.555Z" fill="url(#paint53_linear_1833_615)"/>
<path d="M1842.3 490.758C1843.11 504.35 1842.7 520.289 1839.39 536.47C1831.46 574.981 1807.03 615.271 1742.87 630.239C1606.22 662.196 1457.43 548.605 1465.12 484.043C1468.36 457.264 1486.24 474.496 1486.24 474.496C1486.24 474.496 1480.01 430.969 1486.24 395.452L1486.16 395.533C1484.54 401.439 1432.19 590.433 1264.64 674.413C1261.64 675.869 1258.65 677.325 1255.66 678.701C1204.36 702.163 1146.76 709.283 1091.91 695.61C1080.17 692.697 1068.6 688.814 1057.84 683.636C1048.46 679.186 1039.88 673.927 1032.36 667.455C1023.05 659.445 1015.61 649.737 1011.16 637.844C1011.16 637.844 1043.44 633.637 1092.8 605.805C1133.49 582.909 1185.59 543.994 1241.01 478.218C1344.33 355.566 1509.78 193.108 1673.94 221.263H1674.02C1690.36 224.095 1706.7 228.788 1722.97 235.584C1902.49 310.987 1836.07 451.358 1836.07 451.358C1836.07 451.358 1840.92 467.781 1842.3 490.758Z" fill="url(#paint54_linear_1833_615)"/>
<path d="M1491.98 368.43L1486.32 395.452L1486.24 395.533C1484.62 401.439 1432.27 590.433 1264.72 674.413C1261.72 675.869 1258.73 677.325 1255.74 678.701C1204.44 702.163 1146.84 709.283 1091.98 695.61C1080.25 692.697 1068.68 688.814 1057.92 683.636C1276.45 648.928 1491.98 368.43 1491.98 368.43Z" fill="url(#paint55_linear_1833_615)"/>
<path d="M1255.66 678.701C1204.36 702.163 1146.76 709.283 1091.91 695.61C1057.52 686.953 1023.46 670.206 1011.16 637.844C1011.16 637.844 1043.44 633.637 1092.8 605.805C1113.51 627.973 1166.9 674.413 1255.66 678.701Z" fill="url(#paint56_linear_1833_615)"/>
<path d="M1643.76 484.043C1656.72 484.043 1667.22 469.554 1667.22 451.681C1667.22 433.808 1656.72 419.319 1643.76 419.319C1630.8 419.319 1620.3 433.808 1620.3 451.681C1620.3 469.554 1630.8 484.043 1643.76 484.043Z" fill="url(#paint57_linear_1833_615)"/>
<path d="M1652.9 451.358C1656.03 451.358 1658.57 447.916 1658.57 443.672C1658.57 439.427 1656.03 435.986 1652.9 435.986C1649.78 435.986 1647.24 439.427 1647.24 443.672C1647.24 447.916 1649.78 451.358 1652.9 451.358Z" fill="white"/>
<path d="M1780.73 484.043C1793.69 484.043 1804.19 469.554 1804.19 451.681C1804.19 433.808 1793.69 419.319 1780.73 419.319C1767.77 419.319 1757.27 433.808 1757.27 451.681C1757.27 469.554 1767.77 484.043 1780.73 484.043Z" fill="url(#paint58_linear_1833_615)"/>
<path d="M1789.88 451.358C1793 451.358 1795.54 447.916 1795.54 443.672C1795.54 439.427 1793 435.986 1789.88 435.986C1786.75 435.986 1784.21 439.427 1784.21 443.672C1784.21 447.916 1786.75 451.358 1789.88 451.358Z" fill="white"/>
<path d="M1735.51 493.914H1723.05H1710.59C1703.63 493.914 1697.97 499.253 1697.97 505.888V507.344C1697.97 511.955 1700.8 516.163 1705.17 518.185L1717.71 523.768C1721.11 525.305 1724.99 525.305 1728.39 523.768L1740.93 518.185C1745.3 516.243 1748.13 512.036 1748.13 507.344V505.888C1748.13 499.253 1742.46 493.914 1735.51 493.914Z" fill="#F87C38"/>
<path d="M1713.01 564.544C1696.02 564.544 1665.12 561.308 1648.05 540.11C1647 538.816 1647.24 536.955 1648.53 535.984C1649.83 534.933 1651.69 535.175 1652.66 536.47C1668.76 556.534 1700.15 558.719 1713.09 558.719C1713.18 558.719 1713.26 558.719 1713.26 558.719C1714.87 558.719 1716.17 560.013 1716.17 561.631C1716.09 563.249 1714.55 564.544 1713.01 564.544Z" fill="#F87C38"/>
<path d="M1609.13 412.685C1604.68 412.685 1600.39 410.743 1597.48 406.941C1592.55 400.468 1593.76 391.245 1600.15 386.31C1626.69 365.922 1660.26 360.987 1687.77 373.365C1695.13 376.682 1698.45 385.42 1695.13 392.782C1691.82 400.145 1683.08 403.462 1675.72 400.145C1658.16 392.216 1636.07 395.857 1618.11 409.611C1615.44 411.714 1612.29 412.685 1609.13 412.685Z" fill="#F87C38"/>
<path d="M1819.4 424.74C1814.95 424.74 1810.58 422.717 1807.67 418.915C1794.73 401.763 1774.66 402.491 1760.1 406.132C1752.25 408.073 1744.24 403.3 1742.3 395.452C1740.36 387.604 1745.13 379.595 1752.98 377.653C1785.26 369.563 1813.74 378.219 1831.13 401.277C1835.99 407.75 1834.77 416.973 1828.3 421.827C1825.63 423.769 1822.48 424.74 1819.4 424.74Z" fill="#F87C38"/>
<path opacity="0.4" d="M1839.39 536.47C1834.77 537.683 1829.76 538.33 1824.42 538.33C1802.25 538.33 1784.21 527.085 1784.21 513.25C1784.21 499.415 1802.25 488.169 1824.42 488.169C1830.81 488.169 1836.88 489.14 1842.3 490.839C1843.11 504.35 1842.7 520.289 1839.39 536.47Z" fill="#FFCA83"/>
<path opacity="0.4" d="M1586.56 537.845C1611.8 537.845 1632.27 525.095 1632.27 509.366C1632.27 493.638 1611.8 480.888 1586.56 480.888C1561.31 480.888 1540.85 493.638 1540.85 509.366C1540.85 525.095 1561.31 537.845 1586.56 537.845Z" fill="#FFCA83"/>
<path opacity="0.4" d="M1674.18 221.263C1539.39 206.62 1375.32 353.462 1266.9 496.422C1162.21 634.446 1076.69 663.167 1032.44 667.455C1023.13 659.445 1015.69 649.737 1011.24 637.844C1011.24 637.844 1043.52 633.637 1092.88 605.805C1133.57 582.909 1185.67 543.994 1241.09 478.218C1344.41 355.566 1509.86 193.108 1674.02 221.263H1674.18Z" fill="#FFCA83"/>
<path d="M1276.62 324.337C1268.12 324.256 1259.38 323.77 1250.64 323.042C1071.52 308.722 1020.79 102.818 1020.79 102.818C1042.8 124.501 1088.92 137.527 1146.68 145.294C1154.45 179.921 1184.46 280.81 1276.62 324.337Z" fill="url(#paint59_linear_1833_615)"/>
<path opacity="0.4" d="M1725.15 221.182C1656.38 173.772 1500.72 171.264 1303.64 188.416C1156.63 201.199 1070.31 162.364 1033.09 139.226C1024.35 117.543 1020.79 102.899 1020.79 102.899C1042.8 124.582 1088.92 137.608 1146.68 145.374C1257.36 160.423 1411 156.458 1521.68 158.4C1621.03 160.018 1687.45 193.756 1725.15 221.182Z" fill="#FFCA83"/>
<path d="M2056.05 2828.51C2041.73 2864.92 1998.61 2883.04 1925.8 2869.69C1852.98 2856.26 1836.72 2752.38 1836.72 2752.38C1836.72 2752.38 1820.94 2761.93 1803.23 2749.47C1785.51 2737.01 1765.85 2705.45 1765.85 2705.45V2583.04H1944.97C1944.97 2583.04 1944.97 2631.75 1971.91 2681.91C1972.8 2683.53 1973.77 2685.23 1974.66 2686.85C1979.6 2695.5 1990.04 2708.29 2002.01 2722.93C2018.68 2743.48 2038.09 2767.75 2049.1 2789.51C2056.62 2804.4 2060.18 2818.07 2056.05 2828.51Z" fill="url(#paint60_linear_1833_615)"/>
<path d="M1931.87 2610.8C1893.76 2683.85 1800.56 2675.2 1765.85 2669.05V2583.04H1778.39L1931.87 2610.8Z" fill="url(#paint61_linear_1833_615)"/>
<path d="M1581.71 2564.52L1580.09 2617.75C1457.52 2698.17 1392.39 2602.38 1392.39 2602.38C1388.83 2586.6 1385.68 2566.7 1382.84 2544.13C1416.99 2567.75 1495.79 2609.02 1581.71 2564.52Z" fill="url(#paint62_linear_1833_615)"/>
<path d="M1597.16 2062.66L1595.87 2104.9L1591.82 2236.93L1590.45 2280.78C1499.59 2333.86 1448.62 2241.54 1443.12 2177.23C1437.37 2111.13 1467.07 2053.6 1526.45 2042.19C1567.23 2034.35 1588.1 2051.26 1597.16 2062.66Z" fill="url(#paint63_linear_1833_615)"/>
<path d="M1595.86 2104.9L1591.82 2236.93C1515.53 2280.7 1492.95 2197.45 1494.81 2160.96C1496.76 2123.67 1516.9 2092.03 1550.4 2087.26C1570.78 2084.26 1586.64 2095.59 1595.86 2104.9Z" fill="url(#paint64_linear_1833_615)"/>
<path d="M1960.02 2597.04C1960.02 2597.04 1921.67 2650.44 1850.23 2649.95C1783.41 2649.55 1749.34 2576.25 1749.34 2576.25L1747.16 2527.71C1767.22 2547.77 1813.99 2585.88 1872.56 2576.9C1908.97 2571.31 1937.53 2551.82 1957.68 2532.48L1960.02 2597.04Z" fill="url(#paint65_linear_1833_615)"/>
<path d="M1945.86 2210.64C1935.02 2263.31 1900.07 2301.82 1858.65 2301.82C1808.4 2301.82 1767.79 2245.27 1767.79 2175.45C1767.79 2105.62 1808.48 2048.99 1858.65 2048.99C1896.75 2048.99 1929.44 2081.68 1942.87 2128.03L1945.86 2210.64Z" fill="url(#paint66_linear_1833_615)"/>
<path d="M1858.65 2249.39C1884.61 2249.39 1905.65 2216.29 1905.65 2175.45C1905.65 2134.61 1884.61 2101.5 1858.65 2101.5C1832.69 2101.5 1811.64 2134.61 1811.64 2175.45C1811.64 2216.29 1832.69 2249.39 1858.65 2249.39Z" fill="url(#paint67_linear_1833_615)"/>
<path d="M2056.05 2828.51C2041.73 2864.92 1998.61 2883.04 1925.8 2869.69C1852.98 2856.26 1836.72 2752.38 1836.72 2752.38C1836.72 2752.38 1820.94 2761.93 1803.23 2749.47C1785.51 2737.01 1765.85 2705.45 1765.85 2705.45V2658.45C1790.85 2690.16 1878.47 2800.11 1907.11 2819.37C1940.6 2841.86 2006.22 2839.51 2027.25 2825.11C2039.23 2816.94 2045.62 2801.33 2049.02 2789.43C2056.62 2804.4 2060.18 2818.07 2056.05 2828.51Z" fill="url(#paint68_linear_1833_615)"/>
<path d="M2002.01 2722.93C1958.24 2725.36 1908.32 2760.87 1908.32 2760.87L1880.89 2723.17C1904.03 2697.12 1948.69 2686.04 1971.99 2681.91C1972.88 2683.53 1973.85 2685.23 1974.74 2686.85C1979.6 2695.42 1990.04 2708.21 2002.01 2722.93Z" fill="url(#paint69_linear_1833_615)"/>
<path d="M1662.45 750.221L1658.64 977.241H1933.48L1965.11 750.221H1662.45Z" fill="url(#paint70_linear_1833_615)"/>
<path d="M1662.45 750.221L1644 733.231L1640.44 954.264L1658.65 977.241L1662.45 750.221Z" fill="url(#paint71_linear_1833_615)"/>
<path d="M1644 733.231H1944.65L1965.11 750.221H1662.45L1644 733.231Z" fill="url(#paint72_linear_1833_615)"/>
<path d="M1690.44 958.39H1906.94C1912.04 958.39 1916.33 954.587 1916.97 949.49L1926.12 872.064C1926.52 868.585 1925.06 865.106 1922.31 862.922L1878.95 828.78C1875.15 825.786 1869.81 825.867 1866.17 829.022L1798.45 886.627C1795.29 889.297 1790.92 889.782 1787.2 887.921L1746.83 866.886C1743.27 865.025 1738.9 865.43 1735.75 868.019L1683.89 910.737C1681.54 912.678 1680.25 915.51 1680.25 918.503V948.357C1680.33 953.859 1684.86 958.39 1690.44 958.39Z" fill="url(#paint73_linear_1833_615)"/>
<path d="M1790.6 850.543C1807.85 850.543 1821.83 836.561 1821.83 819.314C1821.83 802.066 1807.85 788.085 1790.6 788.085C1773.35 788.085 1759.37 802.066 1759.37 819.314C1759.37 836.561 1773.35 850.543 1790.6 850.543Z" fill="url(#paint74_linear_1833_615)"/>
<path d="M1496.75 727.244L1526.45 1029.91L1255.66 1038.49L1180.74 737.762L1496.75 727.244Z" fill="url(#paint75_linear_1833_615)"/>
<path d="M1496.75 727.244L1526.45 707.099L1549.42 998.6L1526.45 1029.91L1496.75 727.244Z" fill="url(#paint76_linear_1833_615)"/>
<path d="M1526.45 707.099L1211.64 717.697L1180.74 737.762L1496.75 727.244L1526.45 707.099Z" fill="url(#paint77_linear_1833_615)"/>
<path d="M1416.66 928.455C1406.79 928.455 1397.89 932.5 1391.41 938.973L1333.49 902.08C1334.3 899.167 1334.7 896.093 1334.7 892.937C1334.7 888.002 1333.65 883.229 1331.87 878.941L1368.11 851.514C1375.07 856.611 1383.57 859.605 1392.79 859.605C1415.93 859.605 1434.7 840.835 1434.7 817.696C1434.7 794.557 1415.93 775.787 1392.79 775.787C1369.65 775.787 1350.88 794.557 1350.88 817.696C1350.88 824.735 1352.66 831.369 1355.65 837.113L1320.54 864.54C1314.64 860.09 1307.27 857.42 1299.26 857.42C1279.68 857.42 1263.75 873.358 1263.75 892.937C1263.75 912.517 1279.68 928.455 1299.26 928.455C1308.97 928.455 1317.71 924.571 1324.1 918.261L1382.03 956.043C1381.46 958.632 1381.14 961.221 1381.14 963.972C1381.14 983.551 1397.08 999.49 1416.66 999.49C1436.24 999.49 1452.17 983.551 1452.17 963.972C1452.17 944.312 1436.24 928.455 1416.66 928.455ZM1392.79 800.301C1402.42 800.301 1410.18 808.068 1410.18 817.696C1410.18 827.323 1402.42 835.09 1392.79 835.09C1383.16 835.09 1375.4 827.323 1375.4 817.696C1375.4 808.068 1383.16 800.301 1392.79 800.301ZM1299.26 907.662C1291.09 907.662 1284.54 901.028 1284.54 892.937C1284.54 884.766 1291.17 878.213 1299.26 878.213C1307.35 878.213 1313.99 884.847 1313.99 892.937C1313.99 901.028 1307.44 907.662 1299.26 907.662ZM1416.66 978.697C1408.49 978.697 1401.93 972.063 1401.93 963.972C1401.93 955.801 1408.57 949.247 1416.66 949.247C1424.83 949.247 1431.38 955.882 1431.38 963.972C1431.38 972.063 1424.75 978.697 1416.66 978.697Z" fill="url(#paint78_linear_1833_615)"/>
<path d="M2249.82 480.888L2114.47 885.575L2666.16 892.452L2813 480.888H2249.82Z" fill="url(#paint79_linear_1833_615)"/>
<path d="M2316.65 556.777L2235.75 802.648C2233.08 810.819 2239.14 819.233 2247.72 819.233H2316.97C2322.39 819.233 2327.17 815.835 2328.95 810.738L2413.57 564.948C2416.41 556.777 2410.34 548.201 2401.6 548.201H2328.7C2323.2 548.12 2318.43 551.599 2316.65 556.777Z" fill="url(#paint80_linear_1833_615)"/>
<path d="M2426.03 643.507L2371.18 802.405C2368.35 810.657 2374.42 819.152 2383.15 819.152H2452.33C2457.67 819.152 2462.36 815.835 2464.22 810.9L2522.55 652.002C2525.55 643.75 2519.48 635.012 2510.66 635.012H2438.01C2432.59 635.012 2427.81 638.41 2426.03 643.507Z" fill="url(#paint81_linear_1833_615)"/>
<path d="M2550.63 701.192L2513.33 802.243C2510.25 810.495 2516.4 819.233 2525.22 819.233H2594.23C2599.41 819.233 2604.02 816.078 2605.97 811.304L2646.5 710.254C2649.82 701.921 2643.75 692.859 2634.77 692.859H2562.52C2557.18 692.94 2552.41 696.176 2550.63 701.192Z" fill="url(#paint82_linear_1833_615)"/>
<path d="M2114.47 885.575L2091.49 845.042L2224.33 435.905L2249.82 480.888L2114.47 885.575Z" fill="url(#paint83_linear_1833_615)"/>
<path d="M2224.33 435.905H2777.24L2813 480.888H2249.82L2224.33 435.905Z" fill="url(#paint84_linear_1833_615)"/>
<path d="M955.58 515.515L989.156 485.257L1144.01 990.266L1109.54 1024.81L955.58 515.515Z" fill="url(#paint85_linear_1833_615)"/>
<path d="M955.581 515.515L1109.54 1024.81L520.878 1017.13L328 516.567L955.581 515.515Z" fill="url(#paint86_linear_1833_615)"/>
<path d="M989.156 485.257L370.799 481.454L328 516.567L955.581 515.515L989.156 485.257Z" fill="url(#paint87_linear_1833_615)"/>
<path d="M732.525 759.768L764.159 564.382C764.159 564.382 901.131 607.504 920.306 714.785L732.525 759.768Z" fill="url(#paint88_linear_1833_615)"/>
<path d="M725.809 577.812L694.175 803.861L907.765 754.994C907.765 754.994 935.516 923.52 778.479 955.154C621.442 986.787 539.728 863.731 532.365 793.262C527.592 748.037 530.424 572.068 725.809 577.812Z" fill="url(#paint89_linear_1833_615)"/>
<path d="M1296.68 1204.83H1933.16L1836.15 1599.4H1403.8L1296.68 1204.83Z" fill="url(#paint90_linear_1833_615)"/>
<path d="M1296.68 1204.83L1322.81 1169.07H1900.96L1933.16 1204.83H1296.68Z" fill="url(#paint91_linear_1833_615)"/>
<path d="M1766.49 1411.78C1761.4 1493.25 1693.68 1555.39 1614.88 1555.39C1536.08 1555.39 1468.36 1493.25 1463.26 1411.78C1457.76 1324.4 1525.48 1248.84 1614.88 1248.84C1704.28 1248.84 1772 1324.4 1766.49 1411.78Z" fill="url(#paint92_linear_1833_615)"/>
<path d="M1720.46 1411.78C1717.95 1469.06 1670.78 1513.56 1614.88 1513.56C1559.05 1513.56 1511.81 1469.06 1509.3 1411.78C1506.71 1351.67 1553.88 1300.62 1614.88 1300.62C1675.88 1300.62 1723.05 1351.67 1720.46 1411.78Z" fill="url(#paint93_linear_1833_615)"/>
<path d="M1610.99 1433.06L1577.74 1437.59L1560.43 1366.96C1557.03 1352.88 1566.01 1338.97 1580.01 1337.03C1594 1335 1606.71 1345.93 1607.43 1360.33L1610.99 1433.06Z" fill="url(#paint94_linear_1833_615)"/>
<path d="M1620.7 1433.22L1653.71 1438.89L1673.45 1368.98C1677.34 1355.07 1668.84 1340.83 1655.01 1338.4C1641.09 1335.89 1628.07 1346.33 1626.77 1360.73L1620.7 1433.22Z" fill="url(#paint95_linear_1833_615)"/>
<path d="M1538.91 1460.49C1539.07 1469.39 1540.77 1477.88 1543.68 1485.73C1562.53 1503.04 1587.53 1513.56 1614.88 1513.56C1642.22 1513.56 1667.3 1503.04 1686.07 1485.73C1688.74 1478.69 1690.36 1471.09 1690.77 1463.16C1692.87 1421.09 1659.54 1385.24 1616.17 1384.52C1572.97 1383.71 1538.26 1418.34 1538.91 1460.49Z" fill="url(#paint96_linear_1833_615)"/>
<path d="M1588.1 1450.78C1588.1 1456.36 1584.62 1460.73 1580.41 1460.65C1576.2 1460.57 1572.81 1456.04 1572.81 1450.45C1572.81 1444.87 1576.29 1440.42 1580.49 1440.5C1584.7 1440.58 1588.1 1445.2 1588.1 1450.78Z" fill="url(#paint97_linear_1833_615)"/>
<path d="M1656.63 1451.91C1656.46 1457.49 1652.82 1461.86 1648.62 1461.78C1644.41 1461.7 1641.09 1457.17 1641.25 1451.59C1641.42 1446 1644.98 1441.56 1649.26 1441.64C1653.55 1441.72 1656.79 1446.33 1656.63 1451.91Z" fill="url(#paint98_linear_1833_615)"/>
<path d="M2099.17 1102.64L2025.39 1413L2415.19 1426.34L2529.18 1117.04L2099.17 1102.64Z" fill="url(#paint99_linear_1833_615)"/>
<path d="M2099.17 1102.64L2073.29 1073.92L1995.7 1388.48L2025.39 1413L2099.17 1102.64Z" fill="url(#paint100_linear_1833_615)"/>
<path d="M2073.29 1073.92L2497.55 1089.29L2529.19 1117.04L2099.17 1102.64L2073.29 1073.92Z" fill="url(#paint101_linear_1833_615)"/>
<path d="M2265.76 1207.58C2265.76 1207.58 2273.69 1164.13 2294.97 1155.39C2316.24 1146.66 2332.26 1172.71 2322.39 1188.32C2322.39 1188.32 2365.03 1139.13 2392.21 1179.18C2416.73 1215.34 2362.36 1242.61 2362.36 1242.61C2362.36 1242.61 2392.54 1243.18 2395.69 1264.53C2398.85 1285.89 2352.97 1309.44 2324.58 1294.31L2265.76 1207.58Z" fill="url(#paint102_linear_1833_615)"/>
<path d="M2284.85 1221.01C2284.28 1220.44 2284.04 1219.63 2284.28 1218.9L2298.36 1183.87C2298.68 1182.98 2299.65 1182.66 2300.54 1183.14C2301.43 1183.63 2301.84 1184.68 2301.52 1185.49L2287.44 1220.52C2287.11 1221.41 2286.14 1221.74 2285.25 1221.25C2285.17 1221.17 2285.01 1221.09 2284.85 1221.01Z" fill="url(#paint103_linear_1833_615)"/>
<path d="M2306.7 1238.97C2306.62 1238.89 2306.54 1238.81 2306.46 1238.65C2305.89 1237.84 2305.97 1236.78 2306.7 1236.22L2362.36 1194.63C2363.09 1194.07 2364.14 1194.31 2364.71 1195.12C2365.27 1195.93 2365.19 1196.98 2364.46 1197.55L2308.8 1239.13C2308.24 1239.62 2307.35 1239.54 2306.7 1238.97Z" fill="url(#paint104_linear_1833_615)"/>
<path d="M2320.77 1273.92C2320.45 1273.68 2320.29 1273.27 2320.13 1272.87C2319.88 1271.9 2320.45 1271.01 2321.34 1270.93L2359.37 1265.34C2360.26 1265.18 2361.15 1265.91 2361.39 1266.88C2361.63 1267.85 2361.06 1268.74 2360.17 1268.82L2322.15 1274.41C2321.74 1274.41 2321.18 1274.24 2320.77 1273.92Z" fill="url(#paint105_linear_1833_615)"/>
<path d="M2265.68 1356.28C2261.87 1357.9 2257.99 1359.52 2254.11 1360.97C2207.67 1378.61 2156.78 1382.98 2139.06 1356.85C2128.3 1340.99 2132.51 1317.93 2144.89 1294.07C2146.91 1290.1 2149.17 1286.22 2151.68 1282.33C2165.92 1259.52 2186.71 1236.95 2208.31 1220.2C2211.55 1217.61 2214.87 1215.26 2218.1 1212.92C2220.86 1210.98 2223.61 1209.28 2226.36 1207.58C2280.16 1174.73 2320.29 1233.95 2320.29 1233.95C2320.29 1233.95 2360.5 1293.09 2310.09 1330.88C2297.47 1340.42 2282.1 1349.16 2265.68 1356.28Z" fill="url(#paint106_linear_1833_615)"/>
<path d="M2255.32 1277.48L2254.27 1278.21C2251.76 1279.91 2248.2 1279.02 2246.26 1276.19L2208.31 1220.36C2211.55 1217.77 2214.87 1215.43 2218.1 1213.08L2256.29 1269.31C2258.31 1272.14 2257.83 1275.78 2255.32 1277.48Z" fill="url(#paint107_linear_1833_615)"/>
<path d="M2265.68 1356.28C2261.88 1357.9 2257.99 1359.52 2254.11 1360.97L2223.77 1316.23C2221.83 1313.4 2222.31 1309.76 2224.82 1308.06L2225.79 1307.41C2228.3 1305.72 2231.86 1306.61 2233.8 1309.44L2265.68 1356.28Z" fill="url(#paint108_linear_1833_615)"/>
<path d="M2182.51 1337.51L2181.54 1338.16C2179.03 1339.86 2175.47 1338.97 2173.53 1336.14L2144.97 1294.07C2146.99 1290.1 2149.26 1286.22 2151.76 1282.33L2183.64 1329.34C2185.58 1332.17 2185.1 1335.81 2182.51 1337.51Z" fill="url(#paint109_linear_1833_615)"/>
<path d="M1992.87 1498.67L2014.87 1524.56L1936.4 1750.69L1915.28 1723.91L1992.87 1498.67Z" fill="url(#paint110_linear_1833_615)"/>
<path d="M2014.87 1524.56H2348.69L2319 1498.67H1992.87L2014.87 1524.56Z" fill="url(#paint111_linear_1833_615)"/>
<path d="M1936.39 1750.69H2249.74L2348.69 1524.56H2014.87L1936.39 1750.69Z" fill="url(#paint112_linear_1833_615)"/>
<path d="M2164.06 1558.71L2067.62 1641.8L2136.07 1653.04L2082.35 1716.55L2207.1 1639.93L2143.03 1618.17L2164.06 1558.71Z" fill="url(#paint113_linear_1833_615)"/>
<path d="M683.012 1269.96H1106.95L1248.7 1610.89H826.052L683.012 1269.96Z" fill="url(#paint114_linear_1833_615)"/>
<path d="M828.236 1484.84L862.783 1567.69H1180.74L1143.36 1484.84H828.236Z" fill="url(#paint115_linear_1833_615)"/>
<path d="M819.662 1459.92H931.715L875.648 1305.72H756.475L819.662 1459.92Z" fill="url(#paint116_linear_1833_615)"/>
<path d="M1017.55 1456.44C1058.13 1456.44 1091.02 1423.55 1091.02 1382.98C1091.02 1342.41 1058.13 1309.52 1017.55 1309.52C976.982 1309.52 944.092 1342.41 944.092 1382.98C944.092 1423.55 976.982 1456.44 1017.55 1456.44Z" fill="url(#paint117_linear_1833_615)"/>
<path d="M683.012 1269.96L704.209 1239.62L1133.33 1236.3L1106.95 1269.96H683.012Z" fill="url(#paint118_linear_1833_615)"/>
<path d="M1133.33 1236.3L1272.65 1567.69L1248.7 1610.89L1106.95 1269.96L1133.33 1236.3Z" fill="url(#paint119_linear_1833_615)"/>
<path d="M2002.01 2443.48C2002.01 2443.48 2358.64 2460.88 2482.26 2314.52C2544.8 2240.49 2440.11 2273.66 2440.11 2273.66C2440.11 2273.66 2657.18 2174.07 2664.86 1940.42C2672.55 1706.76 2581.85 1692.68 2487.36 1750.77C2392.86 1808.86 2330.32 1937.83 2314.95 2056.6C2314.95 2056.6 2323.85 1978.68 2258.8 1979.98C2193.67 1981.27 2207.75 2087.26 2196.26 2186.85C2184.77 2286.45 2096.34 2432 2002.01 2443.48Z" fill="url(#paint120_linear_1833_615)"/>
<path d="M1023.62 2112.82C1023.62 2112.82 988.51 1977.31 1060.35 1957C1132.2 1936.69 1100.48 2172.37 1100.48 2172.37C1100.48 2172.37 1105.42 2089.77 1135.6 2087.5C1165.77 2085.24 1173.14 2161.53 1170.47 2233.45C1167.8 2305.38 1259.14 2411.61 1259.14 2411.61C1259.14 2411.61 1045.39 2358.61 916.99 2240.09C743.368 2079.73 648.061 1928.68 672.98 1772.13C697.899 1615.66 914.158 1678.53 1023.62 2112.82Z" fill="url(#paint121_linear_1833_615)"/>
<path d="M1133.41 460.257C1133.41 460.257 813.269 429.675 800.486 266.247C787.703 102.818 909.627 290.518 909.627 290.518C909.627 290.518 762.137 40.1978 884.708 28.7093C1007.36 17.2208 944.093 418.025 1133.41 460.257Z" fill="url(#paint122_linear_1833_615)"/>
<path d="M1886.56 590.272C1886.56 590.272 2351.92 398.769 2351.92 139.145C2351.92 6.94584 2212.2 89.3072 2208.4 202.332C2208.4 202.332 2216 -29.4615 2091.49 3.1433C1966.98 35.6671 1992.87 280.89 2005.33 362.281C2005.33 362.281 1982.19 280.81 1949.66 300.955C1877.01 346.1 2011.07 480.888 1886.56 590.272Z" fill="url(#paint123_linear_1833_615)"/>
<path d="M2791.32 2818.88L2778.53 2866.13L2593.99 2892.35L2486.06 2847.69V2804.89L2603.29 2810.31L2791.32 2818.88Z" fill="url(#paint124_linear_1833_615)"/>
<path d="M2603.29 2810.31L2596.58 2854L2593.99 2892.35L2486.06 2847.69V2804.89L2603.29 2810.31Z" fill="url(#paint125_linear_1833_615)"/>
<path d="M2486.06 2804.89L2596.58 2854L2791.32 2818.88L2723.6 2718.64L2551.19 2728.92L2486.06 2804.89Z" fill="url(#paint126_linear_1833_615)"/>
<path d="M2758.07 2570.42V2614.92L2464.46 2669.53L2170.78 2566.06V2520.1L2501.35 2548.42L2758.07 2570.42Z" fill="url(#paint127_linear_1833_615)"/>
<path d="M2501.35 2548.42L2469.8 2620.67L2464.46 2669.53L2170.78 2566.06V2520.1L2501.35 2548.42Z" fill="url(#paint128_linear_1833_615)"/>
<path d="M2170.78 2520.1L2469.8 2620.67L2758.07 2570.34L2464.46 2476.98L2170.78 2520.1Z" fill="url(#paint129_linear_1833_615)"/>
<path d="M1092.96 2614.52L944.818 2750.11H766.988V2709.42L839.803 2677.7L1092.63 2567.83L1092.96 2614.52Z" fill="url(#paint130_linear_1833_615)"/>
<path d="M944.818 2709.42V2750.11H766.988V2709.42L839.803 2677.78C884.867 2681.99 927.18 2685.88 927.18 2685.88L944.818 2709.42Z" fill="url(#paint131_linear_1833_615)"/>
<path d="M766.988 2709.42H944.818L1092.63 2567.83H929.769L893.524 2614.76L850.968 2614.68L766.988 2709.42Z" fill="url(#paint132_linear_1833_615)"/>
<path d="M746.279 2878.83V2923.82L777.266 2958.28L920.387 2949.71L981.389 2906.58V2866.37L746.279 2878.83Z" fill="url(#paint133_linear_1833_615)"/>
<path d="M783.497 2918.07L777.268 2958.28L920.389 2949.71L915.13 2913.78L783.497 2918.07Z" fill="url(#paint134_linear_1833_615)"/>
<path d="M746.279 2878.83L783.496 2918.07L915.128 2913.78L981.389 2866.37L962.7 2816.13H829.612L746.279 2878.83Z" fill="url(#paint135_linear_1833_615)"/>
<defs>
<linearGradient id="paint0_linear_1833_615" x1="1717.04" y1="3587.21" x2="1717.04" y2="2778.32" gradientUnits="userSpaceOnUse">
<stop stop-color="#386E9F"/>
<stop offset="1" stop-color="white"/>
</linearGradient>
<linearGradient id="paint1_linear_1833_615" x1="1638.75" y1="3615.3" x2="1638.75" y2="2475.11" gradientUnits="userSpaceOnUse">
<stop stop-color="#386E9F"/>
<stop offset="1" stop-color="white"/>
</linearGradient>
<linearGradient id="paint2_linear_1833_615" x1="2323.26" y1="3615.31" x2="2323.26" y2="2475.11" gradientUnits="userSpaceOnUse">
<stop stop-color="#386E9F"/>
<stop offset="1" stop-color="white"/>
</linearGradient>
<linearGradient id="paint3_linear_1833_615" x1="1748.85" y1="3067.65" x2="1641.59" y2="2069.06" gradientUnits="userSpaceOnUse">
<stop stop-color="#386E9F"/>
<stop offset="1" stop-color="white"/>
</linearGradient>
<linearGradient id="paint4_linear_1833_615" x1="1302.46" y1="3429.03" x2="1238.61" y2="2320.63" gradientUnits="userSpaceOnUse">
<stop stop-color="#386E9F"/>
<stop offset="1" stop-color="white"/>
</linearGradient>
<linearGradient id="paint5_linear_1833_615" x1="1762.55" y1="3402.53" x2="1698.7" y2="2294.12" gradientUnits="userSpaceOnUse">
<stop stop-color="#386E9F"/>
<stop offset="1" stop-color="white"/>
</linearGradient>
<linearGradient id="paint6_linear_1833_615" x1="2137.18" y1="3380.95" x2="2073.33" y2="2272.54" gradientUnits="userSpaceOnUse">
<stop stop-color="#386E9F"/>
<stop offset="1" stop-color="white"/>
</linearGradient>
<linearGradient id="paint7_linear_1833_615" x1="1722.53" y1="3123.67" x2="1722.53" y2="1944.84" gradientUnits="userSpaceOnUse">
<stop stop-color="#03192E" stop-opacity="0.3"/>
<stop offset="0.5" stop-color="#223C6A"/>
<stop offset="1" stop-color="#4A749F"/>
</linearGradient>
<linearGradient id="paint8_linear_1833_615" x1="1505.34" y1="2916.81" x2="1505.34" y2="2502.79" gradientUnits="userSpaceOnUse">
<stop stop-color="#386E9F"/>
<stop offset="1" stop-color="white"/>
</linearGradient>
<linearGradient id="paint9_linear_1833_615" x1="1504.16" y1="3199.01" x2="1504.16" y2="2496.61" gradientUnits="userSpaceOnUse">
<stop stop-color="#386E9F"/>
<stop offset="1" stop-color="white"/>
</linearGradient>
<linearGradient id="paint10_linear_1833_615" x1="1496.33" y1="2789.11" x2="1496.33" y2="2506.87" gradientUnits="userSpaceOnUse">
<stop stop-color="#386E9F"/>
<stop offset="1" stop-color="white"/>
</linearGradient>
<linearGradient id="paint11_linear_1833_615" x1="1512.25" y1="2778.89" x2="1512.25" y2="2528.49" gradientUnits="userSpaceOnUse">
<stop stop-color="#386E9F"/>
<stop offset="1" stop-color="white"/>
</linearGradient>
<linearGradient id="paint12_linear_1833_615" x1="1792.06" y1="2723.98" x2="1792.06" y2="860.988" gradientUnits="userSpaceOnUse">
<stop stop-color="#03192E"/>
<stop offset="0.5" stop-color="#223C6A"/>
<stop offset="1" stop-color="#4A749F"/>
</linearGradient>
<linearGradient id="paint13_linear_1833_615" x1="1744.18" y1="1914.39" x2="1744.18" y2="1380.4" gradientUnits="userSpaceOnUse">
<stop stop-color="#03192E"/>
<stop offset="0.5" stop-color="#223C6A"/>
<stop offset="1" stop-color="#4A749F"/>
</linearGradient>
<linearGradient id="paint14_linear_1833_615" x1="1756.61" y1="2634.6" x2="1756.61" y2="2034.1" gradientUnits="userSpaceOnUse">
<stop stop-color="#03192E"/>
<stop offset="0.5" stop-color="#223C6A"/>
<stop offset="1" stop-color="#4A749F"/>
</linearGradient>
<linearGradient id="paint15_linear_1833_615" x1="1462.29" y1="2723.98" x2="1462.29" y2="860.988" gradientUnits="userSpaceOnUse">
<stop stop-color="#03192E"/>
<stop offset="0.5" stop-color="#223C6A"/>
<stop offset="1" stop-color="#4A749F"/>
</linearGradient>
<linearGradient id="paint16_linear_1833_615" x1="1526.58" y1="1914.39" x2="1526.58" y2="1380.4" gradientUnits="userSpaceOnUse">
<stop stop-color="#03192E"/>
<stop offset="0.5" stop-color="#223C6A"/>
<stop offset="1" stop-color="#4A749F"/>
</linearGradient>
<linearGradient id="paint17_linear_1833_615" x1="1414.05" y1="2634.6" x2="1414.05" y2="2034.1" gradientUnits="userSpaceOnUse">
<stop stop-color="#03192E"/>
<stop offset="0.5" stop-color="#223C6A"/>
<stop offset="1" stop-color="#4A749F"/>
</linearGradient>
<linearGradient id="paint18_linear_1833_615" x1="1610.71" y1="1652.61" x2="1610.71" y2="1256" gradientUnits="userSpaceOnUse">
<stop stop-color="#386E9F"/>
<stop offset="1" stop-color="white"/>
</linearGradient>
<linearGradient id="paint19_linear_1833_615" x1="1362.37" y1="1007.75" x2="1362.37" y2="567.573" gradientUnits="userSpaceOnUse">
<stop stop-color="#03192E"/>
<stop offset="0.5" stop-color="#223C6A"/>
<stop offset="1" stop-color="#4A749F"/>
</linearGradient>
<linearGradient id="paint20_linear_1833_615" x1="1612.65" y1="1637.29" x2="1612.65" y2="889.968" gradientUnits="userSpaceOnUse">
<stop stop-color="#03192E"/>
<stop offset="0.5" stop-color="#223C6A"/>
<stop offset="1" stop-color="#4A749F"/>
</linearGradient>
<linearGradient id="paint21_linear_1833_615" x1="1623.23" y1="1692.84" x2="1623.23" y2="709.608" gradientUnits="userSpaceOnUse">
<stop stop-color="#03192E"/>
<stop offset="0.5" stop-color="#223C6A"/>
<stop offset="1" stop-color="#4A749F"/>
</linearGradient>
<linearGradient id="paint22_linear_1833_615" x1="1628.7" y1="1160.98" x2="1628.7" y2="589.991" gradientUnits="userSpaceOnUse">
<stop stop-color="#386E9F"/>
<stop offset="1" stop-color="white"/>
</linearGradient>
<linearGradient id="paint23_linear_1833_615" x1="1016.25" y1="1634.83" x2="954.954" y2="1016.14" gradientUnits="userSpaceOnUse">
<stop stop-color="#FF2A64"/>
<stop offset="0.4467" stop-color="#FF6C56"/>
<stop offset="0.8169" stop-color="#FF9C4C"/>
<stop offset="1" stop-color="#FFAF48"/>
</linearGradient>
<linearGradient id="paint24_linear_1833_615" x1="903.856" y1="1407.43" x2="903.856" y2="1006.15" gradientUnits="userSpaceOnUse">
<stop stop-color="#FF2A64"/>
<stop offset="0.4467" stop-color="#FF6C56"/>
<stop offset="0.8169" stop-color="#FF9C4C"/>
<stop offset="1" stop-color="#FFAF48"/>
</linearGradient>
<linearGradient id="paint25_linear_1833_615" x1="955.5" y1="1407.43" x2="955.5" y2="1006.15" gradientUnits="userSpaceOnUse">
<stop stop-color="#FF2A64"/>
<stop offset="0.4467" stop-color="#FF6C56"/>
<stop offset="0.8169" stop-color="#FF9C4C"/>
<stop offset="1" stop-color="#FFAF48"/>
</linearGradient>
<linearGradient id="paint26_linear_1833_615" x1="2095" y1="1176.56" x2="2095" y2="474.351" gradientUnits="userSpaceOnUse">
<stop stop-color="#386E9F"/>
<stop offset="1" stop-color="white"/>
</linearGradient>
<linearGradient id="paint27_linear_1833_615" x1="2095.76" y1="1315.28" x2="2095.76" y2="550.869" gradientUnits="userSpaceOnUse">
<stop stop-color="#386E9F"/>
<stop offset="1" stop-color="white"/>
</linearGradient>
<linearGradient id="paint28_linear_1833_615" x1="2142.17" y1="1315.28" x2="2142.17" y2="550.868" gradientUnits="userSpaceOnUse">
<stop stop-color="#386E9F"/>
<stop offset="1" stop-color="white"/>
</linearGradient>
<linearGradient id="paint29_linear_1833_615" x1="2047.85" y1="1315.28" x2="2047.85" y2="550.869" gradientUnits="userSpaceOnUse">
<stop stop-color="#386E9F"/>
<stop offset="1" stop-color="white"/>
</linearGradient>
<linearGradient id="paint30_linear_1833_615" x1="2042.66" y1="1613.12" x2="1874.1" y2="249.32" gradientUnits="userSpaceOnUse">
<stop stop-color="#386E9F"/>
<stop offset="1" stop-color="white"/>
</linearGradient>
<linearGradient id="paint31_linear_1833_615" x1="1999.88" y1="971.204" x2="1961.57" y2="157.14" gradientUnits="userSpaceOnUse">
<stop stop-color="#386E9F"/>
<stop offset="1" stop-color="white"/>
</linearGradient>
<linearGradient id="paint32_linear_1833_615" x1="1963.7" y1="972.906" x2="1925.39" y2="158.842" gradientUnits="userSpaceOnUse">
<stop stop-color="#386E9F"/>
<stop offset="1" stop-color="white"/>
</linearGradient>
<linearGradient id="paint33_linear_1833_615" x1="1918.56" y1="975.03" x2="1880.25" y2="160.966" gradientUnits="userSpaceOnUse">
<stop stop-color="#386E9F"/>
<stop offset="1" stop-color="white"/>
</linearGradient>
<linearGradient id="paint34_linear_1833_615" x1="1886.93" y1="976.519" x2="1848.63" y2="162.455" gradientUnits="userSpaceOnUse">
<stop stop-color="#386E9F"/>
<stop offset="1" stop-color="white"/>
</linearGradient>
<linearGradient id="paint35_linear_1833_615" x1="2208.39" y1="1258.03" x2="2208.39" y2="924.193" gradientUnits="userSpaceOnUse">
<stop stop-color="#FF2A64"/>
<stop offset="0.4467" stop-color="#FF6C56"/>
<stop offset="0.8169" stop-color="#FF9C4C"/>
<stop offset="1" stop-color="#FFAF48"/>
</linearGradient>
<linearGradient id="paint36_linear_1833_615" x1="2304.61" y1="1222.74" x2="2304.61" y2="780.598" gradientUnits="userSpaceOnUse">
<stop stop-color="#FF2A64"/>
<stop offset="0.4467" stop-color="#FF6C56"/>
<stop offset="0.8169" stop-color="#FF9C4C"/>
<stop offset="1" stop-color="#FFAF48"/>
</linearGradient>
<linearGradient id="paint37_linear_1833_615" x1="2327.13" y1="1119.16" x2="2327.13" y2="831.684" gradientUnits="userSpaceOnUse">
<stop stop-color="#FF2A64"/>
<stop offset="0.4467" stop-color="#FF6C56"/>
<stop offset="0.8169" stop-color="#FF9C4C"/>
<stop offset="1" stop-color="#FFAF48"/>
</linearGradient>
<linearGradient id="paint38_linear_1833_615" x1="2277.39" y1="1272.08" x2="2277.39" y2="829.936" gradientUnits="userSpaceOnUse">
<stop stop-color="#FF2A64"/>
<stop offset="0.4467" stop-color="#FF6C56"/>
<stop offset="0.8169" stop-color="#FF9C4C"/>
<stop offset="1" stop-color="#FFAF48"/>
</linearGradient>
<linearGradient id="paint39_linear_1833_615" x1="2294.16" y1="1119.16" x2="2294.16" y2="831.684" gradientUnits="userSpaceOnUse">
<stop stop-color="#FF2A64"/>
<stop offset="0.4467" stop-color="#FF6C56"/>
<stop offset="0.8169" stop-color="#FF9C4C"/>
<stop offset="1" stop-color="#FFAF48"/>
</linearGradient>
<linearGradient id="paint40_linear_1833_615" x1="2235.75" y1="1208.39" x2="2235.75" y2="766.251" gradientUnits="userSpaceOnUse">
<stop stop-color="#FF2A64"/>
<stop offset="0.4467" stop-color="#FF6C56"/>
<stop offset="0.8169" stop-color="#FF9C4C"/>
<stop offset="1" stop-color="#FFAF48"/>
</linearGradient>
<linearGradient id="paint41_linear_1833_615" x1="2193.54" y1="1272.08" x2="2193.54" y2="829.936" gradientUnits="userSpaceOnUse">
<stop stop-color="#FF2A64"/>
<stop offset="0.4467" stop-color="#FF6C56"/>
<stop offset="0.8169" stop-color="#FF9C4C"/>
<stop offset="1" stop-color="#FFAF48"/>
</linearGradient>
<linearGradient id="paint42_linear_1833_615" x1="2190.46" y1="1027.22" x2="2190.46" y2="861.309" gradientUnits="userSpaceOnUse">
<stop stop-color="#FF2A64"/>
<stop offset="0.4467" stop-color="#FF6C56"/>
<stop offset="0.8169" stop-color="#FF9C4C"/>
<stop offset="1" stop-color="#FFAF48"/>
</linearGradient>
<linearGradient id="paint43_linear_1833_615" x1="1850.11" y1="1007.75" x2="1850.11" y2="567.573" gradientUnits="userSpaceOnUse">
<stop stop-color="#03192E"/>
<stop offset="0.5" stop-color="#223C6A"/>
<stop offset="1" stop-color="#4A749F"/>
</linearGradient>
<linearGradient id="paint44_linear_1833_615" x1="1270.58" y1="1708.54" x2="1102.03" y2="344.745" gradientUnits="userSpaceOnUse">
<stop stop-color="#386E9F"/>
<stop offset="1" stop-color="white"/>
</linearGradient>
<linearGradient id="paint45_linear_1833_615" x1="1138.56" y1="1221.19" x2="941.274" y2="690.607" gradientUnits="userSpaceOnUse">
<stop stop-color="#386E9F"/>
<stop offset="1" stop-color="white"/>
</linearGradient>
<linearGradient id="paint46_linear_1833_615" x1="1207.01" y1="1195.73" x2="1009.72" y2="665.155" gradientUnits="userSpaceOnUse">
<stop stop-color="#386E9F"/>
<stop offset="1" stop-color="white"/>
</linearGradient>
<linearGradient id="paint47_linear_1833_615" x1="1255.1" y1="1177.85" x2="1057.8" y2="647.276" gradientUnits="userSpaceOnUse">
<stop stop-color="#386E9F"/>
<stop offset="1" stop-color="white"/>
</linearGradient>
<linearGradient id="paint48_linear_1833_615" x1="1312.27" y1="1156.59" x2="1114.98" y2="626.016" gradientUnits="userSpaceOnUse">
<stop stop-color="#386E9F"/>
<stop offset="1" stop-color="white"/>
</linearGradient>
<linearGradient id="paint49_linear_1833_615" x1="1628.86" y1="831.524" x2="1628.86" y2="507.015" gradientUnits="userSpaceOnUse">
<stop stop-color="#03192E"/>
<stop offset="0.5" stop-color="#223C6A"/>
<stop offset="1" stop-color="#4A749F"/>
</linearGradient>
<linearGradient id="paint50_linear_1833_615" x1="1634.2" y1="879.73" x2="1634.2" y2="485.147" gradientUnits="userSpaceOnUse">
<stop stop-color="#FF2A64"/>
<stop offset="0.4467" stop-color="#FF6C56"/>
<stop offset="0.8169" stop-color="#FF9C4C"/>
<stop offset="1" stop-color="#FFAF48"/>
</linearGradient>
<linearGradient id="paint51_linear_1833_615" x1="1634.2" y1="751.395" x2="1634.2" y2="456.62" gradientUnits="userSpaceOnUse">
<stop stop-color="#FF2A64"/>
<stop offset="0.4467" stop-color="#FF6C56"/>
<stop offset="0.8169" stop-color="#FF9C4C"/>
<stop offset="1" stop-color="#FFAF48"/>
</linearGradient>
<linearGradient id="paint52_linear_1833_615" x1="1499.27" y1="668.152" x2="1369.02" y2="73.0872" gradientUnits="userSpaceOnUse">
<stop stop-color="#FF2A64"/>
<stop offset="0.4467" stop-color="#FF6C56"/>
<stop offset="0.8169" stop-color="#FF9C4C"/>
<stop offset="1" stop-color="#FFAF48"/>
</linearGradient>
<linearGradient id="paint53_linear_1833_615" x1="1376.96" y1="619.864" x2="1308" y2="19.6909" gradientUnits="userSpaceOnUse">
<stop stop-color="#FF2A64"/>
<stop offset="0.4467" stop-color="#FF6C56"/>
<stop offset="0.8169" stop-color="#FF9C4C"/>
<stop offset="1" stop-color="#FFAF48"/>
</linearGradient>
<linearGradient id="paint54_linear_1833_615" x1="1429.66" y1="1212.06" x2="1429.66" y2="308.294" gradientUnits="userSpaceOnUse">
<stop stop-color="#FF2A64"/>
<stop offset="0.4467" stop-color="#FF6C56"/>
<stop offset="0.8169" stop-color="#FF9C4C"/>
<stop offset="1" stop-color="#FFAF48"/>
</linearGradient>
<linearGradient id="paint55_linear_1833_615" x1="1497.49" y1="870.958" x2="1169.95" y2="363.365" gradientUnits="userSpaceOnUse">
<stop stop-color="#FF2A64"/>
<stop offset="0.4467" stop-color="#FF6C56"/>
<stop offset="0.8169" stop-color="#FF9C4C"/>
<stop offset="1" stop-color="#FFAF48"/>
</linearGradient>
<linearGradient id="paint56_linear_1833_615" x1="1257.12" y1="1032.98" x2="994.701" y2="238.068" gradientUnits="userSpaceOnUse">
<stop stop-color="#FF2A64"/>
<stop offset="0.4467" stop-color="#FF6C56"/>
<stop offset="0.8169" stop-color="#FF9C4C"/>
<stop offset="1" stop-color="#FFAF48"/>
</linearGradient>
<linearGradient id="paint57_linear_1833_615" x1="1643.77" y1="502.068" x2="1643.77" y2="343.596" gradientUnits="userSpaceOnUse">
<stop stop-color="#03192E"/>
<stop offset="0.5" stop-color="#223C6A"/>
<stop offset="1" stop-color="#4A749F"/>
</linearGradient>
<linearGradient id="paint58_linear_1833_615" x1="1780.73" y1="502.068" x2="1780.73" y2="343.596" gradientUnits="userSpaceOnUse">
<stop stop-color="#03192E"/>
<stop offset="0.5" stop-color="#223C6A"/>
<stop offset="1" stop-color="#4A749F"/>
</linearGradient>
<linearGradient id="paint59_linear_1833_615" x1="1148.68" y1="548.039" x2="1148.68" y2="2.86035" gradientUnits="userSpaceOnUse">
<stop stop-color="#FF2A64"/>
<stop offset="0.4467" stop-color="#FF6C56"/>
<stop offset="0.8169" stop-color="#FF9C4C"/>
<stop offset="1" stop-color="#FFAF48"/>
</linearGradient>
<linearGradient id="paint60_linear_1833_615" x1="1911.84" y1="3199.01" x2="1911.84" y2="2496.61" gradientUnits="userSpaceOnUse">
<stop stop-color="#386E9F"/>
<stop offset="1" stop-color="white"/>
</linearGradient>
<linearGradient id="paint61_linear_1833_615" x1="1848.89" y1="2789.11" x2="1848.89" y2="2506.87" gradientUnits="userSpaceOnUse">
<stop stop-color="#386E9F"/>
<stop offset="1" stop-color="white"/>
</linearGradient>
<linearGradient id="paint62_linear_1833_615" x1="1482.28" y1="2854.23" x2="1482.28" y2="2417.51" gradientUnits="userSpaceOnUse">
<stop stop-color="#03192E"/>
<stop offset="0.5" stop-color="#223C6A"/>
<stop offset="1" stop-color="#4A749F"/>
</linearGradient>
<linearGradient id="paint63_linear_1833_615" x1="1519.82" y1="2307.69" x2="1519.82" y2="1874.97" gradientUnits="userSpaceOnUse">
<stop stop-color="#386E9F"/>
<stop offset="1" stop-color="white"/>
</linearGradient>
<linearGradient id="paint64_linear_1833_615" x1="1545.31" y1="2218.31" x2="1545.31" y2="1824.7" gradientUnits="userSpaceOnUse">
<stop stop-color="#386E9F"/>
<stop offset="1" stop-color="white"/>
</linearGradient>
<linearGradient id="paint65_linear_1833_615" x1="1853.56" y1="2854.23" x2="1853.56" y2="2417.51" gradientUnits="userSpaceOnUse">
<stop stop-color="#03192E"/>
<stop offset="0.5" stop-color="#223C6A"/>
<stop offset="1" stop-color="#4A749F"/>
</linearGradient>
<linearGradient id="paint66_linear_1833_615" x1="1856.85" y1="2307.69" x2="1856.85" y2="1874.97" gradientUnits="userSpaceOnUse">
<stop stop-color="#386E9F"/>
<stop offset="1" stop-color="white"/>
</linearGradient>
<linearGradient id="paint67_linear_1833_615" x1="1858.68" y1="2218.31" x2="1858.68" y2="1824.7" gradientUnits="userSpaceOnUse">
<stop stop-color="#386E9F"/>
<stop offset="1" stop-color="white"/>
</linearGradient>
<linearGradient id="paint68_linear_1833_615" x1="1911.84" y1="2916.81" x2="1911.84" y2="2502.79" gradientUnits="userSpaceOnUse">
<stop stop-color="#386E9F"/>
<stop offset="1" stop-color="white"/>
</linearGradient>
<linearGradient id="paint69_linear_1833_615" x1="1941.4" y1="2778.89" x2="1941.4" y2="2528.49" gradientUnits="userSpaceOnUse">
<stop stop-color="#386E9F"/>
<stop offset="1" stop-color="white"/>
</linearGradient>
<linearGradient id="paint70_linear_1833_615" x1="1810.33" y1="1116.24" x2="1814.16" y2="480.317" gradientUnits="userSpaceOnUse">
<stop stop-color="#03192E"/>
<stop offset="0.5" stop-color="#223C6A"/>
<stop offset="1" stop-color="#4A749F"/>
</linearGradient>
<linearGradient id="paint71_linear_1833_615" x1="1698.87" y1="1129.08" x2="1613.32" y2="629.782" gradientUnits="userSpaceOnUse">
<stop stop-color="#03192E"/>
<stop offset="0.5" stop-color="#223C6A"/>
<stop offset="1" stop-color="#4A749F"/>
</linearGradient>
<linearGradient id="paint72_linear_1833_615" x1="1875.86" y1="1157.92" x2="1790.31" y2="658.623" gradientUnits="userSpaceOnUse">
<stop stop-color="#03192E"/>
<stop offset="0.5" stop-color="#223C6A"/>
<stop offset="1" stop-color="#4A749F"/>
</linearGradient>
<linearGradient id="paint73_linear_1833_615" x1="1803.25" y1="1007.11" x2="1803.25" y2="633.595" gradientUnits="userSpaceOnUse">
<stop stop-color="#386E9F"/>
<stop offset="1" stop-color="white"/>
</linearGradient>
<linearGradient id="paint74_linear_1833_615" x1="1790.62" y1="1007.11" x2="1790.62" y2="633.595" gradientUnits="userSpaceOnUse">
<stop stop-color="#386E9F"/>
<stop offset="1" stop-color="white"/>
</linearGradient>
<linearGradient id="paint75_linear_1833_615" x1="1431.68" y1="1300.49" x2="1276.53" y2="352.341" gradientUnits="userSpaceOnUse">
<stop stop-color="#03192E"/>
<stop offset="0.5" stop-color="#223C6A"/>
<stop offset="1" stop-color="#4A749F"/>
</linearGradient>
<linearGradient id="paint76_linear_1833_615" x1="1614.24" y1="1555.55" x2="1482.07" y2="521.206" gradientUnits="userSpaceOnUse">
<stop stop-color="#03192E"/>
<stop offset="0.5" stop-color="#223C6A"/>
<stop offset="1" stop-color="#4A749F"/>
</linearGradient>
<linearGradient id="paint77_linear_1833_615" x1="1462.51" y1="1574.93" x2="1330.34" y2="540.593" gradientUnits="userSpaceOnUse">
<stop stop-color="#03192E"/>
<stop offset="0.5" stop-color="#223C6A"/>
<stop offset="1" stop-color="#4A749F"/>
</linearGradient>
<linearGradient id="paint78_linear_1833_615" x1="1385.02" y1="1476.08" x2="1350.55" y2="778.855" gradientUnits="userSpaceOnUse">
<stop stop-color="#03192E"/>
<stop offset="0.5" stop-color="#223C6A"/>
<stop offset="1" stop-color="#4A749F"/>
</linearGradient>
<linearGradient id="paint79_linear_1833_615" x1="2463.74" y1="2393.89" x2="2463.74" y2="493.763" gradientUnits="userSpaceOnUse">
<stop stop-color="#03192E"/>
<stop offset="0.5" stop-color="#223C6A"/>
<stop offset="1" stop-color="#4A749F"/>
</linearGradient>
<linearGradient id="paint80_linear_1833_615" x1="2134.55" y1="1686.33" x2="2372.06" y2="433.629" gradientUnits="userSpaceOnUse">
<stop stop-color="#386E9F"/>
<stop offset="1" stop-color="white"/>
</linearGradient>
<linearGradient id="paint81_linear_1833_615" x1="2278.81" y1="1662.99" x2="2474.18" y2="575.016" gradientUnits="userSpaceOnUse">
<stop stop-color="#FF2A64"/>
<stop offset="0.4467" stop-color="#FF6C56"/>
<stop offset="0.8169" stop-color="#FF9C4C"/>
<stop offset="1" stop-color="#FFAF48"/>
</linearGradient>
<linearGradient id="paint82_linear_1833_615" x1="2394.21" y1="1735.56" x2="2631.72" y2="482.862" gradientUnits="userSpaceOnUse">
<stop stop-color="#386E9F"/>
<stop offset="1" stop-color="white"/>
</linearGradient>
<linearGradient id="paint83_linear_1833_615" x1="2170.68" y1="1143.1" x2="2170.68" y2="79.7089" gradientUnits="userSpaceOnUse">
<stop stop-color="#03192E"/>
<stop offset="0.5" stop-color="#223C6A"/>
<stop offset="1" stop-color="#4A749F"/>
</linearGradient>
<linearGradient id="paint84_linear_1833_615" x1="2518.65" y1="591.455" x2="2518.65" y2="35.8576" gradientUnits="userSpaceOnUse">
<stop stop-color="#03192E"/>
<stop offset="0.5" stop-color="#223C6A"/>
<stop offset="1" stop-color="#4A749F"/>
</linearGradient>
<linearGradient id="paint85_linear_1833_615" x1="1049.79" y1="1143.1" x2="1049.79" y2="79.7088" gradientUnits="userSpaceOnUse">
<stop stop-color="#03192E"/>
<stop offset="0.5" stop-color="#223C6A"/>
<stop offset="1" stop-color="#4A749F"/>
</linearGradient>
<linearGradient id="paint86_linear_1833_615" x1="718.771" y1="2393.89" x2="718.771" y2="493.763" gradientUnits="userSpaceOnUse">
<stop stop-color="#03192E"/>
<stop offset="0.5" stop-color="#223C6A"/>
<stop offset="1" stop-color="#4A749F"/>
</linearGradient>
<linearGradient id="paint87_linear_1833_615" x1="658.594" y1="591.455" x2="658.594" y2="35.8571" gradientUnits="userSpaceOnUse">
<stop stop-color="#03192E"/>
<stop offset="0.5" stop-color="#223C6A"/>
<stop offset="1" stop-color="#4A749F"/>
</linearGradient>
<linearGradient id="paint88_linear_1833_615" x1="826.355" y1="1553.01" x2="826.355" y2="505.598" gradientUnits="userSpaceOnUse">
<stop stop-color="#FF2A64"/>
<stop offset="0.4467" stop-color="#FF6C56"/>
<stop offset="0.8169" stop-color="#FF9C4C"/>
<stop offset="1" stop-color="#FFAF48"/>
</linearGradient>
<linearGradient id="paint89_linear_1833_615" x1="720.464" y1="1777.44" x2="720.464" y2="355.86" gradientUnits="userSpaceOnUse">
<stop stop-color="#386E9F"/>
<stop offset="1" stop-color="white"/>
</linearGradient>
<linearGradient id="paint90_linear_1833_615" x1="1614.91" y1="2483.92" x2="1614.91" y2="999.179" gradientUnits="userSpaceOnUse">
<stop stop-color="#03192E"/>
<stop offset="0.5" stop-color="#223C6A"/>
<stop offset="1" stop-color="#4A749F"/>
</linearGradient>
<linearGradient id="paint91_linear_1833_615" x1="1614.91" y1="1286.12" x2="1614.91" y2="1010.11" gradientUnits="userSpaceOnUse">
<stop stop-color="#03192E"/>
<stop offset="0.5" stop-color="#223C6A"/>
<stop offset="1" stop-color="#4A749F"/>
</linearGradient>
<linearGradient id="paint92_linear_1833_615" x1="1614.91" y1="1630.9" x2="1614.91" y2="1103.58" gradientUnits="userSpaceOnUse">
<stop stop-color="#386E9F"/>
<stop offset="1" stop-color="white"/>
</linearGradient>
<linearGradient id="paint93_linear_1833_615" x1="1614.91" y1="1597.7" x2="1614.91" y2="1032.59" gradientUnits="userSpaceOnUse">
<stop stop-color="#03192E"/>
<stop offset="0.5" stop-color="#223C6A"/>
<stop offset="1" stop-color="#4A749F"/>
</linearGradient>
<linearGradient id="paint94_linear_1833_615" x1="1585.37" y1="1428.88" x2="1585.37" y2="1313.26" gradientUnits="userSpaceOnUse">
<stop stop-color="#386E9F"/>
<stop offset="1" stop-color="white"/>
</linearGradient>
<linearGradient id="paint95_linear_1833_615" x1="1647.58" y1="1428.84" x2="1647.58" y2="1313.33" gradientUnits="userSpaceOnUse">
<stop stop-color="#386E9F"/>
<stop offset="1" stop-color="white"/>
</linearGradient>
<linearGradient id="paint96_linear_1833_615" x1="1614.91" y1="1705.8" x2="1614.91" y2="1395.91" gradientUnits="userSpaceOnUse">
<stop stop-color="#386E9F"/>
<stop offset="1" stop-color="white"/>
</linearGradient>
<linearGradient id="paint97_linear_1833_615" x1="1580.41" y1="1526.19" x2="1580.41" y2="1292.44" gradientUnits="userSpaceOnUse">
<stop stop-color="#03192E"/>
<stop offset="0.5" stop-color="#223C6A"/>
<stop offset="1" stop-color="#4A749F"/>
</linearGradient>
<linearGradient id="paint98_linear_1833_615" x1="1648.95" y1="1526.19" x2="1648.95" y2="1292.44" gradientUnits="userSpaceOnUse">
<stop stop-color="#03192E"/>
<stop offset="0.5" stop-color="#223C6A"/>
<stop offset="1" stop-color="#4A749F"/>
</linearGradient>
<linearGradient id="paint99_linear_1833_615" x1="2277.3" y1="2227.25" x2="2277.3" y2="951.352" gradientUnits="userSpaceOnUse">
<stop stop-color="#03192E"/>
<stop offset="0.5" stop-color="#223C6A"/>
<stop offset="1" stop-color="#4A749F"/>
</linearGradient>
<linearGradient id="paint100_linear_1833_615" x1="2047.45" y1="1713.91" x2="2047.45" y2="700.457" gradientUnits="userSpaceOnUse">
<stop stop-color="#03192E"/>
<stop offset="0.5" stop-color="#223C6A"/>
<stop offset="1" stop-color="#4A749F"/>
</linearGradient>
<linearGradient id="paint101_linear_1833_615" x1="2301.25" y1="2169.78" x2="2301.25" y2="780.204" gradientUnits="userSpaceOnUse">
<stop stop-color="#03192E"/>
<stop offset="0.5" stop-color="#223C6A"/>
<stop offset="1" stop-color="#4A749F"/>
</linearGradient>
<linearGradient id="paint102_linear_1833_615" x1="2037.46" y1="1525" x2="2374.58" y2="1184.05" gradientUnits="userSpaceOnUse">
<stop stop-color="#1088B1"/>
<stop offset="1" stop-color="#40C37C"/>
</linearGradient>
<linearGradient id="paint103_linear_1833_615" x1="1937.27" y1="1471.09" x2="2533.61" y2="1020.32" gradientUnits="userSpaceOnUse">
<stop stop-color="#03192E"/>
<stop offset="0.5" stop-color="#223C6A"/>
<stop offset="1" stop-color="#4A749F"/>
</linearGradient>
<linearGradient id="paint104_linear_1833_615" x1="1959.83" y1="1500.94" x2="2556.17" y2="1050.17" gradientUnits="userSpaceOnUse">
<stop stop-color="#03192E"/>
<stop offset="0.5" stop-color="#223C6A"/>
<stop offset="1" stop-color="#4A749F"/>
</linearGradient>
<linearGradient id="paint105_linear_1833_615" x1="1987.21" y1="1537.16" x2="2583.55" y2="1086.39" gradientUnits="userSpaceOnUse">
<stop stop-color="#03192E"/>
<stop offset="0.5" stop-color="#223C6A"/>
<stop offset="1" stop-color="#4A749F"/>
</linearGradient>
<linearGradient id="paint106_linear_1833_615" x1="1845.74" y1="1714.8" x2="2315.03" y2="1214.87" gradientUnits="userSpaceOnUse">
<stop stop-color="#FF2A64"/>
<stop offset="0.4467" stop-color="#FF6C56"/>
<stop offset="0.8169" stop-color="#FF9C4C"/>
<stop offset="1" stop-color="#FFAF48"/>
</linearGradient>
<linearGradient id="paint107_linear_1833_615" x1="2079.96" y1="1505.7" x2="2319.39" y2="1101.54" gradientUnits="userSpaceOnUse">
<stop stop-color="#FF2A64"/>
<stop offset="0.4467" stop-color="#FF6C56"/>
<stop offset="0.8169" stop-color="#FF9C4C"/>
<stop offset="1" stop-color="#FFAF48"/>
</linearGradient>
<linearGradient id="paint108_linear_1833_615" x1="2126.05" y1="1533" x2="2365.48" y2="1128.84" gradientUnits="userSpaceOnUse">
<stop stop-color="#FF2A64"/>
<stop offset="0.4467" stop-color="#FF6C56"/>
<stop offset="0.8169" stop-color="#FF9C4C"/>
<stop offset="1" stop-color="#FFAF48"/>
</linearGradient>
<linearGradient id="paint109_linear_1833_615" x1="2058.82" y1="1493.17" x2="2298.25" y2="1089.01" gradientUnits="userSpaceOnUse">
<stop stop-color="#FF2A64"/>
<stop offset="0.4467" stop-color="#FF6C56"/>
<stop offset="0.8169" stop-color="#FF9C4C"/>
<stop offset="1" stop-color="#FFAF48"/>
</linearGradient>
<linearGradient id="paint110_linear_1833_615" x1="1965.09" y1="1825" x2="1965.09" y2="1191.58" gradientUnits="userSpaceOnUse">
<stop stop-color="#03192E"/>
<stop offset="0.5" stop-color="#223C6A"/>
<stop offset="1" stop-color="#4A749F"/>
</linearGradient>
<linearGradient id="paint111_linear_1833_615" x1="2170.76" y1="1934.82" x2="2170.76" y2="1349.88" gradientUnits="userSpaceOnUse">
<stop stop-color="#03192E"/>
<stop offset="0.5" stop-color="#223C6A"/>
<stop offset="1" stop-color="#4A749F"/>
</linearGradient>
<linearGradient id="paint112_linear_1833_615" x1="2028.22" y1="2268.42" x2="2161.02" y2="1535.44" gradientUnits="userSpaceOnUse">
<stop stop-color="#03192E"/>
<stop offset="0.5" stop-color="#223C6A"/>
<stop offset="1" stop-color="#4A749F"/>
</linearGradient>
<linearGradient id="paint113_linear_1833_615" x1="2137.36" y1="2067.63" x2="2137.36" y2="1582.32" gradientUnits="userSpaceOnUse">
<stop stop-color="#FF2A64"/>
<stop offset="0.4467" stop-color="#FF6C56"/>
<stop offset="0.8169" stop-color="#FF9C4C"/>
<stop offset="1" stop-color="#FFAF48"/>
</linearGradient>
<linearGradient id="paint114_linear_1833_615" x1="965.863" y1="2227.25" x2="965.863" y2="951.352" gradientUnits="userSpaceOnUse">
<stop stop-color="#03192E"/>
<stop offset="0.5" stop-color="#223C6A"/>
<stop offset="1" stop-color="#4A749F"/>
</linearGradient>
<linearGradient id="paint115_linear_1833_615" x1="1004.49" y1="1707.52" x2="1004.49" y2="1032.33" gradientUnits="userSpaceOnUse">
<stop stop-color="#386E9F"/>
<stop offset="1" stop-color="white"/>
</linearGradient>
<linearGradient id="paint116_linear_1833_615" x1="844.074" y1="1707.52" x2="844.074" y2="1032.33" gradientUnits="userSpaceOnUse">
<stop stop-color="#386E9F"/>
<stop offset="1" stop-color="white"/>
</linearGradient>
<linearGradient id="paint117_linear_1833_615" x1="1119.26" y1="1927.98" x2="991.564" y2="1243.52" gradientUnits="userSpaceOnUse">
<stop stop-color="#FF2A64"/>
<stop offset="0.4467" stop-color="#FF6C56"/>
<stop offset="0.8169" stop-color="#FF9C4C"/>
<stop offset="1" stop-color="#FFAF48"/>
</linearGradient>
<linearGradient id="paint118_linear_1833_615" x1="908.161" y1="2169.78" x2="908.161" y2="780.204" gradientUnits="userSpaceOnUse">
<stop stop-color="#03192E"/>
<stop offset="0.5" stop-color="#223C6A"/>
<stop offset="1" stop-color="#4A749F"/>
</linearGradient>
<linearGradient id="paint119_linear_1833_615" x1="1189.81" y1="1713.91" x2="1189.81" y2="700.456" gradientUnits="userSpaceOnUse">
<stop stop-color="#03192E"/>
<stop offset="0.5" stop-color="#223C6A"/>
<stop offset="1" stop-color="#4A749F"/>
</linearGradient>
<linearGradient id="paint120_linear_1833_615" x1="2333.65" y1="4387.87" x2="2333.65" y2="-738.908" gradientUnits="userSpaceOnUse">
<stop stop-color="white"/>
<stop offset="0.5475" stop-color="#94DBF9"/>
<stop offset="1" stop-color="#08B3C9"/>
</linearGradient>
<linearGradient id="paint121_linear_1833_615" x1="964.084" y1="4387.87" x2="964.084" y2="-738.907" gradientUnits="userSpaceOnUse">
<stop stop-color="white"/>
<stop offset="0.5475" stop-color="#94DBF9"/>
<stop offset="1" stop-color="#08B3C9"/>
</linearGradient>
<linearGradient id="paint122_linear_1833_615" x1="966.491" y1="2131.47" x2="966.491" y2="-1509.94" gradientUnits="userSpaceOnUse">
<stop stop-color="white"/>
<stop offset="0.5475" stop-color="#94DBF9"/>
<stop offset="1" stop-color="#08B3C9"/>
</linearGradient>
<linearGradient id="paint123_linear_1833_615" x1="2119.25" y1="2131.47" x2="2119.25" y2="-1509.94" gradientUnits="userSpaceOnUse">
<stop stop-color="white"/>
<stop offset="0.5475" stop-color="#94DBF9"/>
<stop offset="1" stop-color="#08B3C9"/>
</linearGradient>
<linearGradient id="paint124_linear_1833_615" x1="2638.69" y1="3091.75" x2="2638.69" y2="2376.63" gradientUnits="userSpaceOnUse">
<stop stop-color="#386E9F"/>
<stop offset="1" stop-color="white"/>
</linearGradient>
<linearGradient id="paint125_linear_1833_615" x1="2544.67" y1="3084.09" x2="2544.67" y2="2503.89" gradientUnits="userSpaceOnUse">
<stop stop-color="#386E9F"/>
<stop offset="1" stop-color="white"/>
</linearGradient>
<linearGradient id="paint126_linear_1833_615" x1="2638.68" y1="3485.06" x2="2638.68" y2="2374.95" gradientUnits="userSpaceOnUse">
<stop stop-color="#386E9F"/>
<stop offset="1" stop-color="white"/>
</linearGradient>
<linearGradient id="paint127_linear_1833_615" x1="2464.42" y1="2897.65" x2="2464.42" y2="1969.98" gradientUnits="userSpaceOnUse">
<stop stop-color="#386E9F"/>
<stop offset="1" stop-color="white"/>
</linearGradient>
<linearGradient id="paint128_linear_1833_615" x1="2336.08" y1="3301.17" x2="2336.08" y2="2204.35" gradientUnits="userSpaceOnUse">
<stop stop-color="#386E9F"/>
<stop offset="1" stop-color="white"/>
</linearGradient>
<linearGradient id="paint129_linear_1833_615" x1="2464.44" y1="2821.03" x2="2464.44" y2="2302.08" gradientUnits="userSpaceOnUse">
<stop stop-color="#386E9F"/>
<stop offset="1" stop-color="white"/>
</linearGradient>
<linearGradient id="paint130_linear_1833_615" x1="929.972" y1="2897.65" x2="929.972" y2="1969.98" gradientUnits="userSpaceOnUse">
<stop stop-color="#386E9F"/>
<stop offset="1" stop-color="white"/>
</linearGradient>
<linearGradient id="paint131_linear_1833_615" x1="855.902" y1="3301.17" x2="855.902" y2="2204.35" gradientUnits="userSpaceOnUse">
<stop stop-color="#386E9F"/>
<stop offset="1" stop-color="white"/>
</linearGradient>
<linearGradient id="paint132_linear_1833_615" x1="929.803" y1="2821.03" x2="929.803" y2="2302.08" gradientUnits="userSpaceOnUse">
<stop stop-color="#386E9F"/>
<stop offset="1" stop-color="white"/>
</linearGradient>
<linearGradient id="paint133_linear_1833_615" x1="863.812" y1="3091.75" x2="863.812" y2="2376.63" gradientUnits="userSpaceOnUse">
<stop stop-color="#386E9F"/>
<stop offset="1" stop-color="white"/>
</linearGradient>
<linearGradient id="paint134_linear_1833_615" x1="848.836" y1="3084.09" x2="848.836" y2="2503.89" gradientUnits="userSpaceOnUse">
<stop stop-color="#386E9F"/>
<stop offset="1" stop-color="white"/>
</linearGradient>
<linearGradient id="paint135_linear_1833_615" x1="863.812" y1="3485.05" x2="863.812" y2="2374.95" gradientUnits="userSpaceOnUse">
<stop stop-color="#386E9F"/>
<stop offset="1" stop-color="white"/>
</linearGradient>
</defs>
</svg>
